<svg width="24" height="24" viewBox="0 0 24 24" fill="none" xmlns="http://www.w3.org/2000/svg">
<path fill-rule="evenodd" clip-rule="evenodd" d="M4.20643 3H19.7934C20.0896 3 20.3614 3.1293 20.5579 3.33618L20.5594 3.3377L20.5608 3.33922L20.5622 3.34074C20.7588 3.54914 20.8802 3.8336 20.8802 4.14544V19.8561C20.8802 20.171 20.7573 20.4569 20.5608 20.6638C20.3642 20.8707 20.0925 21 19.7934 21H4.20643C3.91016 21 3.63845 20.8722 3.44045 20.6638L3.43901 20.6623L3.43756 20.6608L3.43612 20.6593C3.23956 20.4509 3.11816 20.1664 3.11816 19.8546V4.1424C3.12105 3.82752 3.24245 3.54154 3.43901 3.33466C3.45057 3.32249 3.46213 3.31032 3.47514 3.29967C3.6688 3.11409 3.92605 3 4.20643 3ZM5.66324 8.28911H18.0836V13.4078H5.66324V8.28911ZM9.49168 11.9186H8.56239L8.42943 12.4449H7.59119L8.5913 9.25353H9.48879L10.4846 12.4449H9.62465L9.49168 11.9186ZM9.31825 11.228L9.02776 10.081L8.73727 11.228H9.31825ZM10.8849 9.25353H12.1047C12.3446 9.25353 12.5397 9.29308 12.6871 9.37066C12.8345 9.44976 12.9574 9.56233 13.0542 9.70836C13.151 9.85591 13.2204 10.0263 13.2638 10.2195C13.3071 10.4142 13.3288 10.6195 13.3288 10.8371C13.3288 11.1778 13.297 11.4425 13.232 11.6296C13.1684 11.8182 13.0788 11.9749 12.9632 12.1027C12.8475 12.2305 12.7247 12.3141 12.5932 12.3567C12.414 12.4145 12.2507 12.4434 12.1047 12.4434H10.8849V9.25353ZM11.7043 9.97456V11.7178H11.9052C12.0772 11.7178 12.2001 11.695 12.2723 11.6494C12.3446 11.6037 12.401 11.5231 12.4429 11.4105C12.4848 11.2965 12.505 11.1124 12.505 10.8568C12.505 10.5191 12.4588 10.2879 12.3677 10.1632C12.2752 10.0385 12.1235 9.97608 11.9096 9.97608H11.7043V9.97456ZM13.7479 11.3892L14.5269 11.3299C14.5443 11.482 14.5775 11.5977 14.6295 11.6768C14.7148 11.8045 14.8347 11.8699 14.9923 11.8699C15.1093 11.8699 15.1989 11.838 15.2625 11.7711C15.3261 11.7057 15.3579 11.6281 15.3579 11.5414C15.3579 11.4592 15.329 11.3847 15.2683 11.3193C15.2091 11.2539 15.0689 11.193 14.8492 11.1337C14.4893 11.0379 14.2335 10.9086 14.0803 10.7473C13.9257 10.5876 13.8491 10.3822 13.8491 10.1328C13.8491 9.97 13.8881 9.81484 13.9676 9.66881C14.0471 9.52278 14.1656 9.40869 14.3246 9.32502C14.4836 9.24136 14.7003 9.20029 14.9778 9.20029C15.3175 9.20029 15.5762 9.27635 15.7539 9.42846C15.9317 9.58058 16.0372 9.82092 16.0719 10.1525L15.3001 10.2073C15.2799 10.0628 15.2365 9.95631 15.1715 9.8909C15.105 9.82549 15.014 9.79202 14.8983 9.79202C14.8029 9.79202 14.7307 9.81636 14.683 9.86504C14.6353 9.91372 14.6107 9.97304 14.6107 10.043C14.6107 10.0932 14.631 10.1388 14.67 10.1799C14.7076 10.2225 14.7986 10.2605 14.9431 10.2971C15.3016 10.3898 15.5588 10.4842 15.712 10.58C15.8666 10.6758 15.9808 10.793 16.0502 10.9329C16.121 11.0728 16.1557 11.231 16.1557 11.406C16.1557 11.6098 16.108 11.7984 16.0141 11.9719C15.9201 12.1438 15.7886 12.2761 15.6195 12.3643C15.4504 12.4541 15.238 12.4982 14.9807 12.4982C14.5298 12.4982 14.2162 12.3932 14.0428 12.1848C13.8693 11.9749 13.771 11.7102 13.7479 11.3892ZM5.74272 15.8371C5.55629 15.8371 5.40454 15.6774 5.40454 15.4812C5.40454 15.285 5.55629 15.1252 5.74272 15.1252H10.908C11.0945 15.1252 11.2462 15.285 11.2462 15.4812C11.2462 15.6774 11.0945 15.8371 10.908 15.8371H5.74272ZM12.3894 15.8371C12.2015 15.8371 12.0498 15.6774 12.0498 15.4797C12.0498 15.2819 12.2015 15.1222 12.3894 15.1222H17.9608C18.1487 15.1222 18.3004 15.2819 18.3004 15.4797C18.3004 15.6774 18.1487 15.8371 17.9608 15.8371H12.3894ZM12.3894 17.9059C12.2015 17.9059 12.0498 17.7462 12.0498 17.5485C12.0498 17.3507 12.2015 17.191 12.3894 17.191H17.9608C18.1487 17.191 18.3004 17.3507 18.3004 17.5485C18.3004 17.7462 18.1487 17.9059 17.9608 17.9059H12.3894ZM5.90604 17.9044C5.7196 17.9044 5.56785 17.7447 5.56785 17.5485C5.56785 17.3522 5.7196 17.1925 5.90604 17.1925H11.0713C11.2578 17.1925 11.4095 17.3522 11.4095 17.5485C11.4095 17.7447 11.2578 17.9044 11.0713 17.9044H5.90604ZM10.3646 4.47553C10.7548 4.47553 11.0699 4.80867 11.0699 5.21787C11.0699 5.62706 10.7534 5.9602 10.3646 5.9602C9.97584 5.9602 9.65933 5.62706 9.65933 5.21787C9.65933 4.80867 9.97584 4.47553 10.3646 4.47553ZM5.432 4.47553C5.82221 4.47553 6.13728 4.80867 6.13728 5.21787C6.13728 5.62706 5.82077 5.9602 5.432 5.9602C5.04178 5.9602 4.72672 5.62706 4.72672 5.21787C4.72672 4.80867 5.04178 4.47553 5.432 4.47553ZM7.89758 4.47553C8.2878 4.47553 8.60286 4.80867 8.60286 5.21787C8.60286 5.62706 8.28635 5.9602 7.89758 5.9602C7.50737 5.9602 7.1923 5.62706 7.1923 5.21787C7.1923 4.80867 7.50881 4.47553 7.89758 4.47553ZM19.8989 7.09651C19.8642 7.10259 19.8295 7.10564 19.7948 7.10564H4.20643C4.1703 7.10564 4.13561 7.10259 4.10237 7.09651V19.853C4.10237 19.8835 4.11394 19.9108 4.13128 19.9306L4.13272 19.9321C4.15151 19.9519 4.17608 19.9626 4.20643 19.9626H19.7934C19.8208 19.9626 19.8468 19.9504 19.8671 19.9291C19.8859 19.9093 19.8989 19.8819 19.8989 19.8515V7.09651Z" fill="white"/>
</svg>
