<svg width="24" height="24" viewBox="0 0 24 24" fill="none" xmlns="http://www.w3.org/2000/svg">
<path d="M22.5 18V16.5H20.9242C20.827 16.0307 20.6406 15.5844 20.3752 15.1852L21.4928 14.0677L20.4323 13.0073L19.3148 14.1248C18.9156 13.8594 18.4693 13.673 18 13.5757V12H16.5V13.5757C16.0307 13.673 15.5844 13.8594 15.1852 14.1248L14.0677 13.0073L13.0073 14.0677L14.1248 15.1852C13.8594 15.5844 13.673 16.0307 13.5757 16.5H12V18H13.5757C13.6725 18.4695 13.8593 18.9158 14.1248 19.3148L13.0073 20.4323L14.0677 21.4928L15.1852 20.3752C15.5844 20.6406 16.0307 20.827 16.5 20.9242V22.5H18V20.9242C18.4693 20.827 18.9156 20.6406 19.3148 20.3752L20.4323 21.4928L21.4928 20.4323L20.3752 19.3148C20.6406 18.9156 20.827 18.4693 20.9242 18H22.5ZM17.25 19.5C16.6533 19.5 16.081 19.2629 15.659 18.841C15.2371 18.419 15 17.8467 15 17.25C15 16.6533 15.2371 16.081 15.659 15.659C16.081 15.2371 16.6533 15 17.25 15C17.8467 15 18.419 15.2371 18.841 15.659C19.2629 16.081 19.5 16.6533 19.5 17.25C19.5 17.8467 19.2629 18.419 18.841 18.841C18.419 19.2629 17.8467 19.5 17.25 19.5Z" fill="white"/>
<path d="M17.6243 6.81375L12.5303 1.71975C12.3896 1.57909 12.1989 1.50004 12 1.5H4.5C3.675 1.5 3 2.175 3 3V21C3 21.825 3.675 22.5 4.5 22.5H10.5V21H4.5V3H10.5V7.5C10.5 8.32725 11.1727 9 12 9H16.719C17.2387 9 17.703 8.6895 17.9017 8.2095C18.1012 7.7295 17.9918 7.182 17.6243 6.81375ZM12 7.5V3.3105L16.1887 7.5H12Z" fill="white"/>
</svg>
