<svg width="24" height="24" viewBox="0 0 24 24" fill="none" xmlns="http://www.w3.org/2000/svg">
<path d="M4.23428 9.58168L1.98438 11.9043L2.5147 12.4518L4.7646 10.1291L4.23428 9.58168Z" fill="white"/>
<path d="M3.85946 12.2912L2.73438 13.4526L3.2647 14.0001L4.38978 12.8387L3.85946 12.2912Z" fill="white"/>
<path d="M5.35925 10.743L4.60938 11.5171L5.1397 12.0646L5.88958 11.2904L5.35925 10.743Z" fill="white"/>
<path d="M21.75 5.82401H18C17.1728 5.82401 16.5 6.56278 16.5 7.47121V11.5892H16.056C15.9428 11.2404 15.6926 10.9657 15.375 10.8414V7.39503C15.8104 7.22454 16.125 6.77156 16.125 6.2354C16.125 5.55428 15.6202 5 15 5C14.5118 5 14.0992 5.3455 13.944 5.8236H13.0556C12.9004 5.3455 12.4879 5 11.9996 5C11.5114 5 11.0989 5.3455 10.9436 5.8236H10.0553C9.9 5.3455 9.4875 5 8.99925 5C8.379 5 7.87425 5.55428 7.87425 6.2354C7.87425 6.77156 8.18887 7.22454 8.62425 7.39503V10.8414C8.30662 10.9657 8.0565 11.2404 7.94325 11.5892H7.5V7.47121C7.5 6.56278 6.82725 5.82401 6 5.82401H2.25C1.42275 5.82401 0.75 6.56278 0.75 7.47121V16.5308C0.75 17.4392 1.42275 18.178 2.25 18.178H6C6.82725 18.178 7.5 17.4392 7.5 16.5308V12.4128H7.944C8.05725 12.7616 8.30737 13.0363 8.625 13.1606V16.607C8.18962 16.7775 7.875 17.2304 7.875 17.7666C7.875 18.4477 8.37975 19.002 9 19.002C9.48825 19.002 9.90075 18.6565 10.056 18.1784H10.9444C11.0996 18.6565 11.5121 19.002 12.0004 19.002C12.4886 19.002 12.9011 18.6565 13.0564 18.1784H13.9447C14.1 18.6565 14.5125 19.002 15.0007 19.002C15.621 19.002 16.1257 18.4477 16.1257 17.7666C16.1257 17.2304 15.8111 16.7775 15.3757 16.607V13.1606C15.6934 13.0363 15.9435 12.7616 16.0568 12.4128H16.5V16.5308C16.5 17.4392 17.1728 18.178 18 18.178H21.75C22.5772 18.178 23.25 17.4392 23.25 16.5308V7.47121C23.25 6.56278 22.5772 5.82401 21.75 5.82401ZM2.25 6.64761H6C6.41363 6.64761 6.75 7.01699 6.75 7.47121V7.88301H1.5V7.47121C1.5 7.01699 1.83637 6.64761 2.25 6.64761ZM6.75 8.70661V15.2954H1.5V8.70661H6.75ZM6 17.3544H2.25C1.83637 17.3544 1.5 16.985 1.5 16.5308V16.119H6.75V16.5308C6.75 16.985 6.41363 17.3544 6 17.3544ZM13.944 17.3544H13.0556C13.0024 17.1905 12.921 17.0422 12.8137 16.9183L14.625 13.2726V16.6066C14.3074 16.7309 14.0572 17.0056 13.944 17.3544ZM12 16.5308C11.9505 16.5308 11.9032 16.5399 11.8556 16.5469L9.93675 12.6834C9.987 12.6002 10.0253 12.5083 10.056 12.4128H13.9444C13.9755 12.5083 14.0134 12.6002 14.0636 12.6834L12.1448 16.5469C12.0968 16.5399 12.0495 16.5308 12 16.5308ZM9.375 16.6066V13.2726L11.1859 16.9183C11.079 17.0422 10.9972 17.1905 10.944 17.3544H10.0556C9.94275 17.0056 9.69263 16.7309 9.375 16.6066ZM10.056 6.64761H10.9444C10.9976 6.81151 11.079 6.95975 11.1862 7.0837L9.375 10.7294V7.39544C9.69263 7.27107 9.94275 6.9964 10.056 6.64761ZM12 7.47121C12.0495 7.47121 12.0967 7.46215 12.1444 7.45515L14.0632 11.3186C14.013 11.4018 13.9747 11.4937 13.944 11.5892H10.056C10.0249 11.4937 9.987 11.4018 9.93675 11.3186L11.8556 7.45515C11.9032 7.46215 11.9505 7.47121 12 7.47121ZM14.625 7.39544V10.7294L12.8141 7.0837C12.921 6.95975 13.0028 6.81151 13.056 6.64761H13.9444C14.0573 6.9964 14.3074 7.27107 14.625 7.39544ZM15 5.82401C15.2066 5.82401 15.375 6.0085 15.375 6.23581C15.375 6.46312 15.2066 6.64761 15 6.64761C14.7934 6.64761 14.625 6.46312 14.625 6.23581C14.625 6.0085 14.7934 5.82401 15 5.82401ZM12 5.82401C12.2066 5.82401 12.375 6.0085 12.375 6.23581C12.375 6.46312 12.2066 6.64761 12 6.64761C11.7934 6.64761 11.625 6.46312 11.625 6.23581C11.625 6.0085 11.7934 5.82401 12 5.82401ZM9 5.82401C9.20662 5.82401 9.375 6.0085 9.375 6.23581C9.375 6.46312 9.20662 6.64761 9 6.64761C8.79338 6.64761 8.625 6.46312 8.625 6.23581C8.625 6.0085 8.79338 5.82401 9 5.82401ZM9 11.5892C9.20662 11.5892 9.375 11.7737 9.375 12.001C9.375 12.2283 9.20662 12.4128 9 12.4128C8.79338 12.4128 8.625 12.2283 8.625 12.001C8.625 11.7737 8.79338 11.5892 9 11.5892ZM9 18.178C8.79338 18.178 8.625 17.9935 8.625 17.7662C8.625 17.5389 8.79338 17.3544 9 17.3544C9.20662 17.3544 9.375 17.5389 9.375 17.7662C9.375 17.9935 9.20662 18.178 9 18.178ZM12 18.178C11.7934 18.178 11.625 17.9935 11.625 17.7662C11.625 17.5389 11.7934 17.3544 12 17.3544C12.2066 17.3544 12.375 17.5389 12.375 17.7662C12.375 17.9935 12.2066 18.178 12 18.178ZM15 18.178C14.7934 18.178 14.625 17.9935 14.625 17.7662C14.625 17.5389 14.7934 17.3544 15 17.3544C15.2066 17.3544 15.375 17.5389 15.375 17.7662C15.375 17.9935 15.2066 18.178 15 18.178ZM15 12.4128C14.7934 12.4128 14.625 12.2283 14.625 12.001C14.625 11.7737 14.7934 11.5892 15 11.5892C15.2066 11.5892 15.375 11.7737 15.375 12.001C15.375 12.2283 15.2066 12.4128 15 12.4128ZM18 6.64761H21.75C22.1636 6.64761 22.5 7.01699 22.5 7.47121V7.88301H17.25V7.47121C17.25 7.01699 17.5864 6.64761 18 6.64761ZM22.5 8.70661V15.2954H17.25V8.70661H22.5ZM21.75 17.3544H18C17.5864 17.3544 17.25 16.985 17.25 16.5308V16.119H22.5V16.5308C22.5 16.985 22.1636 17.3544 21.75 17.3544Z" fill="white"/>
<path d="M19.9843 9.58168L17.7344 11.9043L18.2647 12.4518L20.5146 10.1291L19.9843 9.58168Z" fill="white"/>
<path d="M19.6095 12.2912L18.4844 13.4526L19.0147 14.0001L20.1398 12.8387L19.6095 12.2912Z" fill="white"/>
<path d="M21.1093 10.743L20.3594 11.5171L20.8897 12.0646L21.6396 11.2904L21.1093 10.743Z" fill="white"/>
</svg>
