<svg width="24" height="24" viewBox="0 0 24 24" fill="none" xmlns="http://www.w3.org/2000/svg">
<path d="M4.687 6.21312L6.8 18.9761C6.89665 19.5604 7.19759 20.0914 7.6492 20.4745C8.10081 20.8577 8.67377 21.068 9.266 21.0681H12.614M19.312 6.21312L17.2 18.9761C17.1033 19.5604 16.8024 20.0914 16.3508 20.4745C15.8992 20.8577 15.3262 21.068 14.734 21.0681H11.386M10.022 11.1161V16.1651M13.978 11.1161V16.1651M2.75 6.21312H21.25M14.777 6.21312V4.43312C14.777 4.0353 14.619 3.65376 14.3377 3.37246C14.0564 3.09116 13.6748 2.93312 13.277 2.93312H10.723C10.3252 2.93312 9.94364 3.09116 9.66234 3.37246C9.38104 3.65376 9.223 4.0353 9.223 4.43312V6.21312H14.777Z" stroke="#FF0000" stroke-width="1.5" stroke-linecap="round" stroke-linejoin="round"/>
</svg>
