<svg width="24" height="24" viewBox="0 0 24 24" fill="none" xmlns="http://www.w3.org/2000/svg">
<path fill-rule="evenodd" clip-rule="evenodd" d="M14.5357 3.80773C15.7073 2.63615 17.6067 2.63615 18.7783 3.80773L20.1925 5.22194C21.3641 6.39351 21.3641 8.29301 20.1925 9.46458L9.80003 19.8571C9.66043 19.9967 9.48263 20.0918 9.28904 20.1306L3.98573 21.1912C3.28601 21.3312 2.66909 20.7142 2.80904 20.0145L3.8697 14.7112C3.90842 14.5176 4.00357 14.3398 4.14317 14.2002L14.5357 3.80773ZM17.3641 5.22194L18.7783 6.63615C19.1688 7.02668 19.1688 7.65984 18.7783 8.05037L17.3641 9.46458L14.5357 6.63616L15.9499 5.22194C16.3404 4.83142 16.9736 4.83142 17.3641 5.22194ZM13.1215 8.05037L5.77148 15.4004L5.06437 18.9359L8.59991 18.2288L15.9499 10.8788L13.1215 8.05037Z" fill="#04D590"/>
</svg>
