<svg width="1064" height="405" viewBox="0 0 1064 405" fill="none" xmlns="http://www.w3.org/2000/svg">
<rect width="1064" height="405" fill="white" fill-opacity="0.1"/>
<rect x="0.5" y="0.5" width="1063" height="404" rx="9.5" stroke="white" stroke-opacity="0.16"/>
<path d="M37.3505 30.2727V39H36.2937V31.3807H36.2425L34.1119 32.7955V31.7216L36.2937 30.2727H37.3505ZM40.8619 37.8068L40.7937 38.267C40.7454 38.5909 40.6715 38.9375 40.5721 39.3068C40.4755 39.6761 40.3746 40.0241 40.2695 40.3509C40.1644 40.6776 40.0778 40.9375 40.0096 41.1307H39.2425C39.2795 40.9489 39.3278 40.7088 39.3874 40.4105C39.4471 40.1122 39.5067 39.7784 39.5664 39.4091C39.6289 39.0426 39.68 38.6676 39.7198 38.2841L39.771 37.8068H40.8619ZM45.25 39.1193C44.608 39.1193 44.0611 38.9446 43.6094 38.5952C43.1577 38.2429 42.8125 37.733 42.5739 37.0653C42.3352 36.3949 42.2159 35.5852 42.2159 34.6364C42.2159 33.6932 42.3352 32.8878 42.5739 32.2202C42.8153 31.5497 43.1619 31.0384 43.6136 30.6861C44.0682 30.331 44.6136 30.1534 45.25 30.1534C45.8864 30.1534 46.4304 30.331 46.8821 30.6861C47.3366 31.0384 47.6832 31.5497 47.9219 32.2202C48.1634 32.8878 48.2841 33.6932 48.2841 34.6364C48.2841 35.5852 48.1648 36.3949 47.9261 37.0653C47.6875 37.733 47.3423 38.2429 46.8906 38.5952C46.4389 38.9446 45.892 39.1193 45.25 39.1193ZM45.25 38.1818C45.8864 38.1818 46.3807 37.875 46.733 37.2614C47.0852 36.6477 47.2614 35.7727 47.2614 34.6364C47.2614 33.8807 47.1804 33.2372 47.0185 32.706C46.8594 32.1747 46.6293 31.7699 46.3281 31.4915C46.0298 31.2131 45.6705 31.0739 45.25 31.0739C44.6193 31.0739 44.1264 31.3849 43.7713 32.0071C43.4162 32.6264 43.2386 33.5028 43.2386 34.6364C43.2386 35.392 43.3182 36.0341 43.4773 36.5625C43.6364 37.0909 43.8651 37.4929 44.1634 37.7685C44.4645 38.044 44.8267 38.1818 45.25 38.1818ZM52.75 39.1193C52.108 39.1193 51.5611 38.9446 51.1094 38.5952C50.6577 38.2429 50.3125 37.733 50.0739 37.0653C49.8352 36.3949 49.7159 35.5852 49.7159 34.6364C49.7159 33.6932 49.8352 32.8878 50.0739 32.2202C50.3153 31.5497 50.6619 31.0384 51.1136 30.6861C51.5682 30.331 52.1136 30.1534 52.75 30.1534C53.3864 30.1534 53.9304 30.331 54.3821 30.6861C54.8366 31.0384 55.1832 31.5497 55.4219 32.2202C55.6634 32.8878 55.7841 33.6932 55.7841 34.6364C55.7841 35.5852 55.6648 36.3949 55.4261 37.0653C55.1875 37.733 54.8423 38.2429 54.3906 38.5952C53.9389 38.9446 53.392 39.1193 52.75 39.1193ZM52.75 38.1818C53.3864 38.1818 53.8807 37.875 54.233 37.2614C54.5852 36.6477 54.7614 35.7727 54.7614 34.6364C54.7614 33.8807 54.6804 33.2372 54.5185 32.706C54.3594 32.1747 54.1293 31.7699 53.8281 31.4915C53.5298 31.2131 53.1705 31.0739 52.75 31.0739C52.1193 31.0739 51.6264 31.3849 51.2713 32.0071C50.9162 32.6264 50.7386 33.5028 50.7386 34.6364C50.7386 35.392 50.8182 36.0341 50.9773 36.5625C51.1364 37.0909 51.3651 37.4929 51.6634 37.7685C51.9645 38.044 52.3267 38.1818 52.75 38.1818ZM60.25 39.1193C59.608 39.1193 59.0611 38.9446 58.6094 38.5952C58.1577 38.2429 57.8125 37.733 57.5739 37.0653C57.3352 36.3949 57.2159 35.5852 57.2159 34.6364C57.2159 33.6932 57.3352 32.8878 57.5739 32.2202C57.8153 31.5497 58.1619 31.0384 58.6136 30.6861C59.0682 30.331 59.6136 30.1534 60.25 30.1534C60.8864 30.1534 61.4304 30.331 61.8821 30.6861C62.3366 31.0384 62.6832 31.5497 62.9219 32.2202C63.1634 32.8878 63.2841 33.6932 63.2841 34.6364C63.2841 35.5852 63.1648 36.3949 62.9261 37.0653C62.6875 37.733 62.3423 38.2429 61.8906 38.5952C61.4389 38.9446 60.892 39.1193 60.25 39.1193ZM60.25 38.1818C60.8864 38.1818 61.3807 37.875 61.733 37.2614C62.0852 36.6477 62.2614 35.7727 62.2614 34.6364C62.2614 33.8807 62.1804 33.2372 62.0185 32.706C61.8594 32.1747 61.6293 31.7699 61.3281 31.4915C61.0298 31.2131 60.6705 31.0739 60.25 31.0739C59.6193 31.0739 59.1264 31.3849 58.7713 32.0071C58.4162 32.6264 58.2386 33.5028 58.2386 34.6364C58.2386 35.392 58.3182 36.0341 58.4773 36.5625C58.6364 37.0909 58.8651 37.4929 59.1634 37.7685C59.4645 38.044 59.8267 38.1818 60.25 38.1818Z" fill="#535862"/>
<line x1="72.5" y1="35" x2="1039.5" y2="35" stroke="#F5F5F5" stroke-opacity="0.16" stroke-linecap="round"/>
<path d="M45.3043 99.8195C44.7191 99.8195 44.2021 99.7158 43.7532 99.5084C43.3072 99.2982 42.9592 99.0099 42.7092 98.6434C42.4592 98.2741 42.3356 97.8536 42.3384 97.382C42.3356 97.0127 42.408 96.6718 42.5558 96.3593C42.7035 96.0439 42.9052 95.7812 43.1609 95.5709C43.4194 95.3579 43.7077 95.2229 44.0259 95.1661V95.115C43.6083 95.007 43.2759 94.7726 43.0288 94.4118C42.7816 94.0482 42.6594 93.6349 42.6623 93.1718C42.6594 92.7286 42.7717 92.3323 42.9989 91.9829C43.2262 91.6334 43.5387 91.3579 43.9364 91.1562C44.337 90.9545 44.793 90.8536 45.3043 90.8536C45.81 90.8536 46.2617 90.9545 46.6594 91.1562C47.0572 91.3579 47.3697 91.6334 47.5969 91.9829C47.8271 92.3323 47.9435 92.7286 47.9464 93.1718C47.9435 93.6349 47.8171 94.0482 47.5671 94.4118C47.32 94.7726 46.9918 95.007 46.5827 95.115V95.1661C46.8981 95.2229 47.1822 95.3579 47.435 95.5709C47.6879 95.7812 47.8896 96.0439 48.0401 96.3593C48.1907 96.6718 48.2674 97.0127 48.2702 97.382C48.2674 97.8536 48.1396 98.2741 47.8867 98.6434C47.6367 99.0099 47.2887 99.2982 46.8427 99.5084C46.3995 99.7158 45.8867 99.8195 45.3043 99.8195ZM45.3043 98.882C45.6992 98.882 46.0401 98.8181 46.3271 98.6903C46.614 98.5624 46.8356 98.382 46.9918 98.1491C47.1481 97.9161 47.2276 97.6434 47.2305 97.3309C47.2276 97.0013 47.1424 96.7101 46.9748 96.4573C46.8072 96.2045 46.5785 96.0056 46.2887 95.8607C46.0018 95.7158 45.6737 95.6434 45.3043 95.6434C44.9322 95.6434 44.5998 95.7158 44.3072 95.8607C44.0174 96.0056 43.7887 96.2045 43.6211 96.4573C43.4563 96.7101 43.3754 97.0013 43.3782 97.3309C43.3754 97.6434 43.4506 97.9161 43.604 98.1491C43.7603 98.382 43.9833 98.5624 44.2731 98.6903C44.5629 98.8181 44.9066 98.882 45.3043 98.882ZM45.3043 94.74C45.6168 94.74 45.8938 94.6775 46.1353 94.5525C46.3796 94.4275 46.5714 94.2528 46.7106 94.0283C46.8498 93.8039 46.9208 93.5411 46.9237 93.24C46.9208 92.9445 46.8512 92.6874 46.7148 92.4687C46.5785 92.2471 46.3896 92.0766 46.1481 91.9573C45.9066 91.8351 45.6254 91.7741 45.3043 91.7741C44.9776 91.7741 44.6921 91.8351 44.4478 91.9573C44.2035 92.0766 44.0146 92.2471 43.881 92.4687C43.7475 92.6874 43.6822 92.9445 43.685 93.24C43.6822 93.5411 43.7489 93.8039 43.8853 94.0283C44.0245 94.2528 44.2163 94.4275 44.4606 94.5525C44.7049 94.6775 44.9862 94.74 45.3043 94.74ZM52.75 99.8195C52.108 99.8195 51.5611 99.6448 51.1094 99.2954C50.6577 98.9431 50.3125 98.4331 50.0739 97.7655C49.8352 97.0951 49.7159 96.2854 49.7159 95.3366C49.7159 94.3934 49.8352 93.588 50.0739 92.9204C50.3153 92.2499 50.6619 91.7385 51.1136 91.3863C51.5682 91.0312 52.1136 90.8536 52.75 90.8536C53.3864 90.8536 53.9304 91.0312 54.3821 91.3863C54.8366 91.7385 55.1832 92.2499 55.4219 92.9204C55.6634 93.588 55.7841 94.3934 55.7841 95.3366C55.7841 96.2854 55.6648 97.0951 55.4261 97.7655C55.1875 98.4331 54.8423 98.9431 54.3906 99.2954C53.9389 99.6448 53.392 99.8195 52.75 99.8195ZM52.75 98.882C53.3864 98.882 53.8807 98.5752 54.233 97.9616C54.5852 97.3479 54.7614 96.4729 54.7614 95.3366C54.7614 94.5809 54.6804 93.9374 54.5185 93.4062C54.3594 92.8749 54.1293 92.4701 53.8281 92.1917C53.5298 91.9133 53.1705 91.7741 52.75 91.7741C52.1193 91.7741 51.6264 92.0851 51.2713 92.7073C50.9162 93.3266 50.7386 94.203 50.7386 95.3366C50.7386 96.0922 50.8182 96.7343 50.9773 97.2627C51.1364 97.7911 51.3651 98.1931 51.6634 98.4687C51.9645 98.7442 52.3267 98.882 52.75 98.882ZM60.25 99.8195C59.608 99.8195 59.0611 99.6448 58.6094 99.2954C58.1577 98.9431 57.8125 98.4331 57.5739 97.7655C57.3352 97.0951 57.2159 96.2854 57.2159 95.3366C57.2159 94.3934 57.3352 93.588 57.5739 92.9204C57.8153 92.2499 58.1619 91.7385 58.6136 91.3863C59.0682 91.0312 59.6136 90.8536 60.25 90.8536C60.8864 90.8536 61.4304 91.0312 61.8821 91.3863C62.3366 91.7385 62.6832 92.2499 62.9219 92.9204C63.1634 93.588 63.2841 94.3934 63.2841 95.3366C63.2841 96.2854 63.1648 97.0951 62.9261 97.7655C62.6875 98.4331 62.3423 98.9431 61.8906 99.2954C61.4389 99.6448 60.892 99.8195 60.25 99.8195ZM60.25 98.882C60.8864 98.882 61.3807 98.5752 61.733 97.9616C62.0852 97.3479 62.2614 96.4729 62.2614 95.3366C62.2614 94.5809 62.1804 93.9374 62.0185 93.4062C61.8594 92.8749 61.6293 92.4701 61.3281 92.1917C61.0298 91.9133 60.6705 91.7741 60.25 91.7741C59.6193 91.7741 59.1264 92.0851 58.7713 92.7073C58.4162 93.3266 58.2386 94.203 58.2386 95.3366C58.2386 96.0922 58.3182 96.7343 58.4773 97.2627C58.6364 97.7911 58.8651 98.1931 59.1634 98.4687C59.4645 98.7442 59.8267 98.882 60.25 98.882Z" fill="#535862"/>
<line x1="72.5" y1="95.7002" x2="1039.5" y2="95.7002" stroke="#F5F5F5" stroke-opacity="0.16" stroke-linecap="round"/>
<path d="M45.3129 158.019C44.9549 158.014 44.5969 157.945 44.239 157.815C43.881 157.684 43.5543 157.464 43.2589 157.154C42.9634 156.842 42.7262 156.42 42.5472 155.889C42.3683 155.354 42.2788 154.684 42.2788 153.877C42.2788 153.104 42.3512 152.42 42.4961 151.823C42.641 151.224 42.8512 150.72 43.1268 150.31C43.4023 149.898 43.7347 149.586 44.1239 149.373C44.516 149.16 44.9577 149.053 45.4492 149.053C45.9379 149.053 46.3725 149.151 46.7532 149.347C47.1367 149.541 47.4492 149.81 47.6907 150.157C47.9322 150.504 48.0884 150.903 48.1594 151.354H47.1197C47.0231 150.962 46.8356 150.637 46.5572 150.379C46.2788 150.12 45.9094 149.991 45.4492 149.991C44.7731 149.991 44.2404 150.285 43.8512 150.873C43.4648 151.461 43.2702 152.286 43.2674 153.349H43.3356C43.4947 153.107 43.6836 152.901 43.9023 152.731C44.1239 152.558 44.3683 152.424 44.6353 152.33C44.9023 152.237 45.185 152.19 45.4833 152.19C45.9833 152.19 46.4407 152.315 46.8555 152.565C47.2702 152.812 47.6026 153.154 47.8526 153.592C48.1026 154.026 48.2276 154.525 48.2276 155.087C48.2276 155.627 48.1069 156.121 47.8654 156.57C47.6239 157.016 47.2844 157.371 46.8469 157.636C46.4123 157.897 45.9009 158.025 45.3129 158.019ZM45.3129 157.082C45.6708 157.082 45.9918 156.992 46.2759 156.813C46.5629 156.634 46.7887 156.394 46.9535 156.093C47.1211 155.792 47.2049 155.457 47.2049 155.087C47.2049 154.727 47.1239 154.398 46.962 154.103C46.8029 153.805 46.5827 153.568 46.3015 153.391C46.0231 153.215 45.7049 153.127 45.3469 153.127C45.0771 153.127 44.8256 153.181 44.5927 153.289C44.3597 153.394 44.1552 153.539 43.979 153.724C43.8058 153.908 43.6694 154.12 43.57 154.359C43.4705 154.595 43.4208 154.843 43.4208 155.104C43.4208 155.451 43.5018 155.775 43.6637 156.076C43.8285 156.377 44.0529 156.62 44.337 156.805C44.6239 156.989 44.9492 157.082 45.3129 157.082ZM52.75 158.019C52.108 158.019 51.5611 157.845 51.1094 157.495C50.6577 157.143 50.3125 156.633 50.0739 155.965C49.8352 155.295 49.7159 154.485 49.7159 153.536C49.7159 152.593 49.8352 151.788 50.0739 151.12C50.3153 150.45 50.6619 149.938 51.1136 149.586C51.5682 149.231 52.1136 149.053 52.75 149.053C53.3864 149.053 53.9304 149.231 54.3821 149.586C54.8366 149.938 55.1832 150.45 55.4219 151.12C55.6634 151.788 55.7841 152.593 55.7841 153.536C55.7841 154.485 55.6648 155.295 55.4261 155.965C55.1875 156.633 54.8423 157.143 54.3906 157.495C53.9389 157.845 53.392 158.019 52.75 158.019ZM52.75 157.082C53.3864 157.082 53.8807 156.775 54.233 156.161C54.5852 155.548 54.7614 154.673 54.7614 153.536C54.7614 152.781 54.6804 152.137 54.5185 151.606C54.3594 151.075 54.1293 150.67 53.8281 150.391C53.5298 150.113 53.1705 149.974 52.75 149.974C52.1193 149.974 51.6264 150.285 51.2713 150.907C50.9162 151.526 50.7386 152.403 50.7386 153.536C50.7386 154.292 50.8182 154.934 50.9773 155.462C51.1364 155.991 51.3651 156.393 51.6634 156.668C51.9645 156.944 52.3267 157.082 52.75 157.082ZM60.25 158.019C59.608 158.019 59.0611 157.845 58.6094 157.495C58.1577 157.143 57.8125 156.633 57.5739 155.965C57.3352 155.295 57.2159 154.485 57.2159 153.536C57.2159 152.593 57.3352 151.788 57.5739 151.12C57.8153 150.45 58.1619 149.938 58.6136 149.586C59.0682 149.231 59.6136 149.053 60.25 149.053C60.8864 149.053 61.4304 149.231 61.8821 149.586C62.3366 149.938 62.6832 150.45 62.9219 151.12C63.1634 151.788 63.2841 152.593 63.2841 153.536C63.2841 154.485 63.1648 155.295 62.9261 155.965C62.6875 156.633 62.3423 157.143 61.8906 157.495C61.4389 157.845 60.892 158.019 60.25 158.019ZM60.25 157.082C60.8864 157.082 61.3807 156.775 61.733 156.161C62.0852 155.548 62.2614 154.673 62.2614 153.536C62.2614 152.781 62.1804 152.137 62.0185 151.606C61.8594 151.075 61.6293 150.67 61.3281 150.391C61.0298 150.113 60.6705 149.974 60.25 149.974C59.6193 149.974 59.1264 150.285 58.7713 150.907C58.4162 151.526 58.2386 152.403 58.2386 153.536C58.2386 154.292 58.3182 154.934 58.4773 155.462C58.6364 155.991 58.8651 156.393 59.1634 156.668C59.4645 156.944 59.8267 157.082 60.25 157.082Z" fill="#535862"/>
<line x1="72.5" y1="153.9" x2="1039.5" y2="153.9" stroke="#F5F5F5" stroke-opacity="0.16" stroke-linecap="round"/>
<path d="M41.9996 214.31V213.441L45.8349 207.373H46.4656V208.719H46.0394L43.1417 213.305V213.373H48.3065V214.31H41.9996ZM46.1076 216.1V214.046V213.641V207.373H47.1133V216.1H46.1076ZM52.75 216.219C52.108 216.219 51.5611 216.045 51.1094 215.695C50.6577 215.343 50.3125 214.833 50.0739 214.165C49.8352 213.495 49.7159 212.685 49.7159 211.736C49.7159 210.793 49.8352 209.988 50.0739 209.32C50.3153 208.65 50.6619 208.138 51.1136 207.786C51.5682 207.431 52.1136 207.254 52.75 207.254C53.3864 207.254 53.9304 207.431 54.3821 207.786C54.8366 208.138 55.1832 208.65 55.4219 209.32C55.6634 209.988 55.7841 210.793 55.7841 211.736C55.7841 212.685 55.6648 213.495 55.4261 214.165C55.1875 214.833 54.8423 215.343 54.3906 215.695C53.9389 216.045 53.392 216.219 52.75 216.219ZM52.75 215.282C53.3864 215.282 53.8807 214.975 54.233 214.361C54.5852 213.748 54.7614 212.873 54.7614 211.736C54.7614 210.981 54.6804 210.337 54.5185 209.806C54.3594 209.275 54.1293 208.87 53.8281 208.592C53.5298 208.313 53.1705 208.174 52.75 208.174C52.1193 208.174 51.6264 208.485 51.2713 209.107C50.9162 209.727 50.7386 210.603 50.7386 211.736C50.7386 212.492 50.8182 213.134 50.9773 213.663C51.1364 214.191 51.3651 214.593 51.6634 214.869C51.9645 215.144 52.3267 215.282 52.75 215.282ZM60.25 216.219C59.608 216.219 59.0611 216.045 58.6094 215.695C58.1577 215.343 57.8125 214.833 57.5739 214.165C57.3352 213.495 57.2159 212.685 57.2159 211.736C57.2159 210.793 57.3352 209.988 57.5739 209.32C57.8153 208.65 58.1619 208.138 58.6136 207.786C59.0682 207.431 59.6136 207.254 60.25 207.254C60.8864 207.254 61.4304 207.431 61.8821 207.786C62.3366 208.138 62.6832 208.65 62.9219 209.32C63.1634 209.988 63.2841 210.793 63.2841 211.736C63.2841 212.685 63.1648 213.495 62.9261 214.165C62.6875 214.833 62.3423 215.343 61.8906 215.695C61.4389 216.045 60.892 216.219 60.25 216.219ZM60.25 215.282C60.8864 215.282 61.3807 214.975 61.733 214.361C62.0852 213.748 62.2614 212.873 62.2614 211.736C62.2614 210.981 62.1804 210.337 62.0185 209.806C61.8594 209.275 61.6293 208.87 61.3281 208.592C61.0298 208.313 60.6705 208.174 60.25 208.174C59.6193 208.174 59.1264 208.485 58.7713 209.107C58.4162 209.727 58.2386 210.603 58.2386 211.736C58.2386 212.492 58.3182 213.134 58.4773 213.663C58.6364 214.191 58.8651 214.593 59.1634 214.869C59.4645 215.144 59.8267 215.282 60.25 215.282Z" fill="#535862"/>
<line x1="72.5" y1="212.1" x2="1039.5" y2="212.1" stroke="#F5F5F5" stroke-opacity="0.16" stroke-linecap="round"/>
<path d="M42.6378 274.3V273.533L45.5185 270.379C45.8565 270.01 46.1349 269.689 46.3537 269.416C46.5724 269.141 46.7344 268.882 46.8395 268.641C46.9474 268.396 47.0014 268.141 47.0014 267.874C47.0014 267.567 46.9276 267.301 46.7798 267.077C46.6349 266.852 46.4361 266.679 46.1832 266.557C45.9304 266.435 45.6463 266.374 45.331 266.374C44.9957 266.374 44.7031 266.443 44.4531 266.582C44.206 266.719 44.0142 266.911 43.8778 267.158C43.7443 267.405 43.6776 267.695 43.6776 268.027H42.6719C42.6719 267.516 42.7898 267.067 43.0256 266.68C43.2614 266.294 43.5824 265.993 43.9886 265.777C44.3977 265.561 44.8565 265.453 45.3651 265.453C45.8764 265.453 46.3295 265.561 46.7244 265.777C47.1193 265.993 47.429 266.284 47.6534 266.651C47.8778 267.017 47.9901 267.425 47.9901 267.874C47.9901 268.195 47.9318 268.509 47.8153 268.815C47.7017 269.119 47.5028 269.459 47.2188 269.834C46.9375 270.206 46.5469 270.661 46.0469 271.198L44.0866 273.294V273.362H48.1435V274.3H42.6378ZM52.75 274.419C52.108 274.419 51.5611 274.244 51.1094 273.895C50.6577 273.543 50.3125 273.033 50.0739 272.365C49.8352 271.695 49.7159 270.885 49.7159 269.936C49.7159 268.993 49.8352 268.188 50.0739 267.52C50.3153 266.85 50.6619 266.338 51.1136 265.986C51.5682 265.631 52.1136 265.453 52.75 265.453C53.3864 265.453 53.9304 265.631 54.3821 265.986C54.8366 266.338 55.1832 266.85 55.4219 267.52C55.6634 268.188 55.7841 268.993 55.7841 269.936C55.7841 270.885 55.6648 271.695 55.4261 272.365C55.1875 273.033 54.8423 273.543 54.3906 273.895C53.9389 274.244 53.392 274.419 52.75 274.419ZM52.75 273.482C53.3864 273.482 53.8807 273.175 54.233 272.561C54.5852 271.948 54.7614 271.073 54.7614 269.936C54.7614 269.18 54.6804 268.537 54.5185 268.006C54.3594 267.475 54.1293 267.07 53.8281 266.791C53.5298 266.513 53.1705 266.374 52.75 266.374C52.1193 266.374 51.6264 266.685 51.2713 267.307C50.9162 267.926 50.7386 268.803 50.7386 269.936C50.7386 270.692 50.8182 271.334 50.9773 271.862C51.1364 272.391 51.3651 272.793 51.6634 273.068C51.9645 273.344 52.3267 273.482 52.75 273.482ZM60.25 274.419C59.608 274.419 59.0611 274.244 58.6094 273.895C58.1577 273.543 57.8125 273.033 57.5739 272.365C57.3352 271.695 57.2159 270.885 57.2159 269.936C57.2159 268.993 57.3352 268.188 57.5739 267.52C57.8153 266.85 58.1619 266.338 58.6136 265.986C59.0682 265.631 59.6136 265.453 60.25 265.453C60.8864 265.453 61.4304 265.631 61.8821 265.986C62.3366 266.338 62.6832 266.85 62.9219 267.52C63.1634 268.188 63.2841 268.993 63.2841 269.936C63.2841 270.885 63.1648 271.695 62.9261 272.365C62.6875 273.033 62.3423 273.543 61.8906 273.895C61.4389 274.244 60.892 274.419 60.25 274.419ZM60.25 273.482C60.8864 273.482 61.3807 273.175 61.733 272.561C62.0852 271.948 62.2614 271.073 62.2614 269.936C62.2614 269.18 62.1804 268.537 62.0185 268.006C61.8594 267.475 61.6293 267.07 61.3281 266.791C61.0298 266.513 60.6705 266.374 60.25 266.374C59.6193 266.374 59.1264 266.685 58.7713 267.307C58.4162 267.926 58.2386 268.803 58.2386 269.936C58.2386 270.692 58.3182 271.334 58.4773 271.862C58.6364 272.391 58.8651 272.793 59.1634 273.068C59.4645 273.344 59.8267 273.482 60.25 273.482Z" fill="#535862"/>
<line x1="72.5" y1="270.3" x2="1039.5" y2="270.3" stroke="#F5F5F5" stroke-opacity="0.16" stroke-linecap="round"/>
<path d="M60.25 332.619C59.608 332.619 59.0611 332.445 58.6094 332.095C58.1577 331.743 57.8125 331.233 57.5739 330.565C57.3352 329.895 57.2159 329.085 57.2159 328.136C57.2159 327.193 57.3352 326.388 57.5739 325.72C57.8153 325.05 58.1619 324.538 58.6136 324.186C59.0682 323.831 59.6136 323.653 60.25 323.653C60.8864 323.653 61.4304 323.831 61.8821 324.186C62.3366 324.538 62.6832 325.05 62.9219 325.72C63.1634 326.388 63.2841 327.193 63.2841 328.136C63.2841 329.085 63.1648 329.895 62.9261 330.565C62.6875 331.233 62.3423 331.743 61.8906 332.095C61.4389 332.445 60.892 332.619 60.25 332.619ZM60.25 331.682C60.8864 331.682 61.3807 331.375 61.733 330.761C62.0852 330.148 62.2614 329.273 62.2614 328.136C62.2614 327.381 62.1804 326.737 62.0185 326.206C61.8594 325.675 61.6293 325.27 61.3281 324.991C61.0298 324.713 60.6705 324.574 60.25 324.574C59.6193 324.574 59.1264 324.885 58.7713 325.507C58.4162 326.126 58.2386 327.003 58.2386 328.136C58.2386 328.892 58.3182 329.534 58.4773 330.062C58.6364 330.591 58.8651 330.993 59.1634 331.268C59.4645 331.544 59.8267 331.682 60.25 331.682Z" fill="#535862"/>
<line x1="72.5" y1="328.5" x2="1039.5" y2="328.5" stroke="#F5F5F5" stroke-opacity="0.16" stroke-linecap="round"/>
<path d="M73.1232 350V341.273H78.3903V342.21H74.18V345.159H78.1175V346.097H74.18V349.062H78.4585V350H73.1232ZM85.511 343.455L83.0906 350H82.0678L79.6474 343.455H80.7383L82.5451 348.67H82.6133L84.4201 343.455H85.511ZM89.3484 350.136C88.7177 350.136 88.1737 349.997 87.7163 349.719C87.2617 349.438 86.9109 349.045 86.6637 348.543C86.4194 348.037 86.2972 347.449 86.2972 346.778C86.2972 346.108 86.4194 345.517 86.6637 345.006C86.9109 344.491 87.2546 344.091 87.695 343.804C88.1381 343.514 88.6552 343.369 89.2461 343.369C89.587 343.369 89.9237 343.426 90.256 343.54C90.5884 343.653 90.891 343.838 91.1637 344.094C91.4364 344.347 91.6538 344.682 91.8157 345.099C91.9776 345.517 92.0586 346.031 92.0586 346.642V347.068H87.0131V346.199H91.0359C91.0359 345.83 90.962 345.5 90.8143 345.21C90.6694 344.92 90.462 344.692 90.1921 344.524C89.9251 344.357 89.6097 344.273 89.2461 344.273C88.8455 344.273 88.4989 344.372 88.2063 344.571C87.9165 344.767 87.6935 345.023 87.5373 345.338C87.381 345.653 87.3029 345.991 87.3029 346.352V346.932C87.3029 347.426 87.3881 347.845 87.5586 348.189C87.7319 348.53 87.9719 348.79 88.2788 348.969C88.5856 349.145 88.9421 349.233 89.3484 349.233C89.6126 349.233 89.8512 349.196 90.0643 349.122C90.2802 349.045 90.4663 348.932 90.6225 348.781C90.7788 348.628 90.8995 348.437 90.9847 348.21L91.9563 348.483C91.854 348.812 91.6822 349.102 91.4407 349.352C91.1992 349.599 90.9009 349.793 90.5458 349.932C90.1907 350.068 89.7915 350.136 89.3484 350.136ZM94.5941 346.062V350H93.5884V343.455H94.56V344.477H94.6452C94.7987 344.145 95.0316 343.878 95.3441 343.676C95.6566 343.472 96.06 343.369 96.5543 343.369C96.9975 343.369 97.3853 343.46 97.7177 343.642C98.0501 343.821 98.3086 344.094 98.4933 344.46C98.6779 344.824 98.7702 345.284 98.7702 345.841V350H97.7646V345.909C97.7646 345.395 97.631 344.994 97.364 344.707C97.0969 344.418 96.7305 344.273 96.2646 344.273C95.9435 344.273 95.6566 344.342 95.4038 344.482C95.1538 344.621 94.9563 344.824 94.8114 345.091C94.6665 345.358 94.5941 345.682 94.5941 346.062ZM103.455 343.455V344.307H100.062V343.455H103.455ZM101.051 341.886H102.057V348.125C102.057 348.409 102.098 348.622 102.18 348.764C102.266 348.903 102.374 348.997 102.504 349.045C102.638 349.091 102.778 349.114 102.926 349.114C103.037 349.114 103.128 349.108 103.199 349.097C103.27 349.082 103.327 349.071 103.369 349.062L103.574 349.966C103.506 349.991 103.411 350.017 103.288 350.043C103.166 350.071 103.011 350.085 102.824 350.085C102.54 350.085 102.261 350.024 101.989 349.902C101.719 349.78 101.494 349.594 101.315 349.344C101.139 349.094 101.051 348.778 101.051 348.398V341.886ZM111.393 341.273V350H110.337V342.381H110.286L108.155 343.795V342.722L110.337 341.273H111.393Z" fill="#535862"/>
<path d="M224.436 350V341.273H229.703V342.21H225.493V345.159H229.43V346.097H225.493V349.062H229.771V350H224.436ZM236.824 343.455L234.403 350H233.38L230.96 343.455H232.051L233.858 348.67H233.926L235.733 343.455H236.824ZM240.661 350.136C240.03 350.136 239.486 349.997 239.029 349.719C238.574 349.438 238.223 349.045 237.976 348.543C237.732 348.037 237.61 347.449 237.61 346.778C237.61 346.108 237.732 345.517 237.976 345.006C238.223 344.491 238.567 344.091 239.007 343.804C239.451 343.514 239.968 343.369 240.559 343.369C240.9 343.369 241.236 343.426 241.569 343.54C241.901 343.653 242.203 343.838 242.476 344.094C242.749 344.347 242.966 344.682 243.128 345.099C243.29 345.517 243.371 346.031 243.371 346.642V347.068H238.326V346.199H242.348C242.348 345.83 242.275 345.5 242.127 345.21C241.982 344.92 241.775 344.692 241.505 344.524C241.238 344.357 240.922 344.273 240.559 344.273C240.158 344.273 239.811 344.372 239.519 344.571C239.229 344.767 239.006 345.023 238.85 345.338C238.694 345.653 238.615 345.991 238.615 346.352V346.932C238.615 347.426 238.701 347.845 238.871 348.189C239.044 348.53 239.284 348.79 239.591 348.969C239.898 349.145 240.255 349.233 240.661 349.233C240.925 349.233 241.164 349.196 241.377 349.122C241.593 349.045 241.779 348.932 241.935 348.781C242.091 348.628 242.212 348.437 242.297 348.21L243.269 348.483C243.167 348.812 242.995 349.102 242.753 349.352C242.512 349.599 242.213 349.793 241.858 349.932C241.503 350.068 241.104 350.136 240.661 350.136ZM245.907 346.062V350H244.901V343.455H245.873V344.477H245.958C246.111 344.145 246.344 343.878 246.657 343.676C246.969 343.472 247.373 343.369 247.867 343.369C248.31 343.369 248.698 343.46 249.03 343.642C249.363 343.821 249.621 344.094 249.806 344.46C249.99 344.824 250.083 345.284 250.083 345.841V350H249.077V345.909C249.077 345.395 248.944 344.994 248.676 344.707C248.409 344.418 248.043 344.273 247.577 344.273C247.256 344.273 246.969 344.342 246.716 344.482C246.466 344.621 246.269 344.824 246.124 345.091C245.979 345.358 245.907 345.682 245.907 346.062ZM254.767 343.455V344.307H251.375V343.455H254.767ZM252.364 341.886H253.369V348.125C253.369 348.409 253.411 348.622 253.493 348.764C253.578 348.903 253.686 348.997 253.817 349.045C253.95 349.091 254.091 349.114 254.239 349.114C254.349 349.114 254.44 349.108 254.511 349.097C254.582 349.082 254.639 349.071 254.682 349.062L254.886 349.966C254.818 349.991 254.723 350.017 254.601 350.043C254.479 350.071 254.324 350.085 254.136 350.085C253.852 350.085 253.574 350.024 253.301 349.902C253.031 349.78 252.807 349.594 252.628 349.344C252.452 349.094 252.364 348.778 252.364 348.398V341.886ZM259.638 350V349.233L262.518 346.08C262.857 345.71 263.135 345.389 263.354 345.116C263.572 344.841 263.734 344.582 263.839 344.341C263.947 344.097 264.001 343.841 264.001 343.574C264.001 343.267 263.928 343.001 263.78 342.777C263.635 342.553 263.436 342.379 263.183 342.257C262.93 342.135 262.646 342.074 262.331 342.074C261.996 342.074 261.703 342.143 261.453 342.283C261.206 342.419 261.014 342.611 260.878 342.858C260.744 343.105 260.678 343.395 260.678 343.727H259.672C259.672 343.216 259.79 342.767 260.026 342.381C260.261 341.994 260.582 341.693 260.989 341.477C261.398 341.261 261.857 341.153 262.365 341.153C262.876 341.153 263.33 341.261 263.724 341.477C264.119 341.693 264.429 341.984 264.653 342.351C264.878 342.717 264.99 343.125 264.99 343.574C264.99 343.895 264.932 344.209 264.815 344.516C264.702 344.82 264.503 345.159 264.219 345.534C263.938 345.906 263.547 346.361 263.047 346.898L261.087 348.994V349.062H265.143V350H259.638Z" fill="#535862"/>
<path d="M377.061 350V341.273H382.328V342.21H378.118V345.159H382.055V346.097H378.118V349.062H382.396V350H377.061ZM389.449 343.455L387.028 350H386.005L383.585 343.455H384.676L386.483 348.67H386.551L388.358 343.455H389.449ZM393.286 350.136C392.655 350.136 392.111 349.997 391.654 349.719C391.199 349.438 390.848 349.045 390.601 348.543C390.357 348.037 390.235 347.449 390.235 346.778C390.235 346.108 390.357 345.517 390.601 345.006C390.848 344.491 391.192 344.091 391.632 343.804C392.076 343.514 392.593 343.369 393.184 343.369C393.525 343.369 393.861 343.426 394.194 343.54C394.526 343.653 394.828 343.838 395.101 344.094C395.374 344.347 395.591 344.682 395.753 345.099C395.915 345.517 395.996 346.031 395.996 346.642V347.068H390.951V346.199H394.973C394.973 345.83 394.9 345.5 394.752 345.21C394.607 344.92 394.4 344.692 394.13 344.524C393.863 344.357 393.547 344.273 393.184 344.273C392.783 344.273 392.436 344.372 392.144 344.571C391.854 344.767 391.631 345.023 391.475 345.338C391.319 345.653 391.24 345.991 391.24 346.352V346.932C391.24 347.426 391.326 347.845 391.496 348.189C391.669 348.53 391.909 348.79 392.216 348.969C392.523 349.145 392.88 349.233 393.286 349.233C393.55 349.233 393.789 349.196 394.002 349.122C394.218 349.045 394.404 348.932 394.56 348.781C394.716 348.628 394.837 348.437 394.922 348.21L395.894 348.483C395.792 348.812 395.62 349.102 395.378 349.352C395.137 349.599 394.838 349.793 394.483 349.932C394.128 350.068 393.729 350.136 393.286 350.136ZM398.532 346.062V350H397.526V343.455H398.498V344.477H398.583C398.736 344.145 398.969 343.878 399.282 343.676C399.594 343.472 399.998 343.369 400.492 343.369C400.935 343.369 401.323 343.46 401.655 343.642C401.988 343.821 402.246 344.094 402.431 344.46C402.615 344.824 402.708 345.284 402.708 345.841V350H401.702V345.909C401.702 345.395 401.569 344.994 401.301 344.707C401.034 344.418 400.668 344.273 400.202 344.273C399.881 344.273 399.594 344.342 399.341 344.482C399.091 344.621 398.894 344.824 398.749 345.091C398.604 345.358 398.532 345.682 398.532 346.062ZM407.392 343.455V344.307H404V343.455H407.392ZM404.989 341.886H405.994V348.125C405.994 348.409 406.036 348.622 406.118 348.764C406.203 348.903 406.311 348.997 406.442 349.045C406.575 349.091 406.716 349.114 406.864 349.114C406.974 349.114 407.065 349.108 407.136 349.097C407.207 349.082 407.264 349.071 407.307 349.062L407.511 349.966C407.443 349.991 407.348 350.017 407.226 350.043C407.104 350.071 406.949 350.085 406.761 350.085C406.477 350.085 406.199 350.024 405.926 349.902C405.656 349.78 405.432 349.594 405.253 349.344C405.077 349.094 404.989 348.778 404.989 348.398V341.886ZM415.212 350.119C414.649 350.119 414.148 350.023 413.707 349.83C413.27 349.636 412.922 349.368 412.663 349.024C412.408 348.678 412.268 348.276 412.246 347.818H413.32C413.342 348.099 413.439 348.342 413.609 348.547C413.78 348.749 414.003 348.905 414.278 349.016C414.554 349.126 414.859 349.182 415.195 349.182C415.57 349.182 415.902 349.116 416.192 348.986C416.482 348.855 416.709 348.673 416.874 348.44C417.038 348.207 417.121 347.938 417.121 347.631C417.121 347.31 417.041 347.027 416.882 346.783C416.723 346.536 416.49 346.342 416.183 346.203C415.876 346.064 415.501 345.994 415.058 345.994H414.359V345.057H415.058C415.405 345.057 415.709 344.994 415.97 344.869C416.234 344.744 416.44 344.568 416.588 344.341C416.739 344.114 416.814 343.847 416.814 343.54C416.814 343.244 416.749 342.987 416.618 342.768C416.487 342.55 416.303 342.379 416.064 342.257C415.828 342.135 415.55 342.074 415.229 342.074C414.928 342.074 414.643 342.129 414.376 342.24C414.112 342.348 413.896 342.506 413.729 342.713C413.561 342.918 413.47 343.165 413.456 343.455H412.433C412.45 342.997 412.588 342.597 412.847 342.253C413.105 341.906 413.443 341.636 413.861 341.443C414.281 341.25 414.743 341.153 415.246 341.153C415.786 341.153 416.249 341.263 416.635 341.482C417.021 341.697 417.318 341.983 417.526 342.338C417.733 342.693 417.837 343.077 417.837 343.489C417.837 343.98 417.707 344.399 417.449 344.746C417.193 345.092 416.845 345.332 416.405 345.466V345.534C416.956 345.625 417.386 345.859 417.696 346.237C418.006 346.612 418.161 347.077 418.161 347.631C418.161 348.105 418.031 348.531 417.773 348.909C417.517 349.284 417.168 349.58 416.724 349.795C416.281 350.011 415.777 350.119 415.212 350.119Z" fill="#535862"/>
<path d="M531.002 350V341.273H536.269V342.21H532.059V345.159H535.996V346.097H532.059V349.062H536.337V350H531.002ZM543.39 343.455L540.969 350H539.947L537.526 343.455H538.617L540.424 348.67H540.492L542.299 343.455H543.39ZM547.227 350.136C546.597 350.136 546.053 349.997 545.595 349.719C545.141 349.438 544.79 349.045 544.543 348.543C544.298 348.037 544.176 347.449 544.176 346.778C544.176 346.108 544.298 345.517 544.543 345.006C544.79 344.491 545.134 344.091 545.574 343.804C546.017 343.514 546.534 343.369 547.125 343.369C547.466 343.369 547.803 343.426 548.135 343.54C548.467 343.653 548.77 343.838 549.043 344.094C549.315 344.347 549.533 344.682 549.695 345.099C549.857 345.517 549.938 346.031 549.938 346.642V347.068H544.892V346.199H548.915C548.915 345.83 548.841 345.5 548.693 345.21C548.548 344.92 548.341 344.692 548.071 344.524C547.804 344.357 547.489 344.273 547.125 344.273C546.724 344.273 546.378 344.372 546.085 344.571C545.795 344.767 545.572 345.023 545.416 345.338C545.26 345.653 545.182 345.991 545.182 346.352V346.932C545.182 347.426 545.267 347.845 545.438 348.189C545.611 348.53 545.851 348.79 546.158 348.969C546.464 349.145 546.821 349.233 547.227 349.233C547.491 349.233 547.73 349.196 547.943 349.122C548.159 349.045 548.345 348.932 548.501 348.781C548.658 348.628 548.778 348.437 548.864 348.21L549.835 348.483C549.733 348.812 549.561 349.102 549.32 349.352C549.078 349.599 548.78 349.793 548.425 349.932C548.07 350.068 547.67 350.136 547.227 350.136ZM552.473 346.062V350H551.467V343.455H552.439V344.477H552.524C552.678 344.145 552.911 343.878 553.223 343.676C553.536 343.472 553.939 343.369 554.433 343.369C554.876 343.369 555.264 343.46 555.597 343.642C555.929 343.821 556.188 344.094 556.372 344.46C556.557 344.824 556.649 345.284 556.649 345.841V350H555.643V345.909C555.643 345.395 555.51 344.994 555.243 344.707C554.976 344.418 554.609 344.273 554.143 344.273C553.822 344.273 553.536 344.342 553.283 344.482C553.033 344.621 552.835 344.824 552.69 345.091C552.545 345.358 552.473 345.682 552.473 346.062ZM561.333 343.455V344.307H557.941V343.455H561.333ZM558.93 341.886H559.936V348.125C559.936 348.409 559.977 348.622 560.059 348.764C560.145 348.903 560.252 348.997 560.383 349.045C560.517 349.091 560.657 349.114 560.805 349.114C560.916 349.114 561.007 349.108 561.078 349.097C561.149 349.082 561.206 349.071 561.248 349.062L561.453 349.966C561.385 349.991 561.289 350.017 561.167 350.043C561.045 350.071 560.89 350.085 560.703 350.085C560.419 350.085 560.14 350.024 559.868 349.902C559.598 349.78 559.373 349.594 559.194 349.344C559.018 349.094 558.93 348.778 558.93 348.398V341.886ZM566 348.21V347.341L569.835 341.273H570.466V342.619H570.039L567.142 347.205V347.273H572.306V348.21H566ZM570.108 350V347.946V347.541V341.273H571.113V350H570.108Z" fill="#535862"/>
<path d="M684.401 350V341.273H689.668V342.21H685.457V345.159H689.395V346.097H685.457V349.062H689.736V350H684.401ZM696.788 343.455L694.368 350H693.345L690.925 343.455H692.016L693.822 348.67H693.891L695.697 343.455H696.788ZM700.626 350.136C699.995 350.136 699.451 349.997 698.994 349.719C698.539 349.438 698.188 349.045 697.941 348.543C697.697 348.037 697.575 347.449 697.575 346.778C697.575 346.108 697.697 345.517 697.941 345.006C698.188 344.491 698.532 344.091 698.972 343.804C699.415 343.514 699.933 343.369 700.523 343.369C700.864 343.369 701.201 343.426 701.533 343.54C701.866 343.653 702.168 343.838 702.441 344.094C702.714 344.347 702.931 344.682 703.093 345.099C703.255 345.517 703.336 346.031 703.336 346.642V347.068H698.29V346.199H702.313C702.313 345.83 702.239 345.5 702.092 345.21C701.947 344.92 701.739 344.692 701.469 344.524C701.202 344.357 700.887 344.273 700.523 344.273C700.123 344.273 699.776 344.372 699.484 344.571C699.194 344.767 698.971 345.023 698.815 345.338C698.658 345.653 698.58 345.991 698.58 346.352V346.932C698.58 347.426 698.665 347.845 698.836 348.189C699.009 348.53 699.249 348.79 699.556 348.969C699.863 349.145 700.219 349.233 700.626 349.233C700.89 349.233 701.129 349.196 701.342 349.122C701.558 349.045 701.744 348.932 701.9 348.781C702.056 348.628 702.177 348.437 702.262 348.21L703.234 348.483C703.131 348.812 702.96 349.102 702.718 349.352C702.477 349.599 702.178 349.793 701.823 349.932C701.468 350.068 701.069 350.136 700.626 350.136ZM705.871 346.062V350H704.866V343.455H705.837V344.477H705.923C706.076 344.145 706.309 343.878 706.621 343.676C706.934 343.472 707.337 343.369 707.832 343.369C708.275 343.369 708.663 343.46 708.995 343.642C709.327 343.821 709.586 344.094 709.771 344.46C709.955 344.824 710.048 345.284 710.048 345.841V350H709.042V345.909C709.042 345.395 708.908 344.994 708.641 344.707C708.374 344.418 708.008 344.273 707.542 344.273C707.221 344.273 706.934 344.342 706.681 344.482C706.431 344.621 706.234 344.824 706.089 345.091C705.944 345.358 705.871 345.682 705.871 346.062ZM714.732 343.455V344.307H711.34V343.455H714.732ZM712.328 341.886H713.334V348.125C713.334 348.409 713.375 348.622 713.458 348.764C713.543 348.903 713.651 348.997 713.782 349.045C713.915 349.091 714.056 349.114 714.203 349.114C714.314 349.114 714.405 349.108 714.476 349.097C714.547 349.082 714.604 349.071 714.647 349.062L714.851 349.966C714.783 349.991 714.688 350.017 714.566 350.043C714.444 350.071 714.289 350.085 714.101 350.085C713.817 350.085 713.539 350.024 713.266 349.902C712.996 349.78 712.772 349.594 712.593 349.344C712.417 349.094 712.328 348.778 712.328 348.398V341.886ZM722.33 350.119C721.83 350.119 721.38 350.02 720.979 349.821C720.578 349.622 720.257 349.349 720.016 349.003C719.775 348.656 719.642 348.261 719.62 347.818H720.642C720.682 348.213 720.861 348.54 721.179 348.798C721.5 349.054 721.884 349.182 722.33 349.182C722.688 349.182 723.006 349.098 723.284 348.93C723.566 348.763 723.786 348.533 723.945 348.24C724.107 347.945 724.188 347.611 724.188 347.239C724.188 346.858 724.104 346.518 723.936 346.22C723.772 345.919 723.544 345.682 723.255 345.509C722.965 345.335 722.634 345.247 722.262 345.244C721.995 345.241 721.721 345.283 721.439 345.368C721.158 345.45 720.926 345.557 720.745 345.688L719.756 345.568L720.284 341.273H724.819V342.21H721.171L720.864 344.784H720.915C721.094 344.642 721.319 344.524 721.588 344.43C721.858 344.337 722.14 344.29 722.432 344.29C722.966 344.29 723.442 344.418 723.86 344.673C724.28 344.926 724.61 345.273 724.848 345.713C725.09 346.153 725.211 346.656 725.211 347.222C725.211 347.778 725.086 348.276 724.836 348.713C724.588 349.148 724.248 349.491 723.813 349.744C723.378 349.994 722.884 350.119 722.33 350.119Z" fill="#535862"/>
<path d="M837.213 350V341.273H842.48V342.21H838.27V345.159H842.207V346.097H838.27V349.062H842.548V350H837.213ZM849.601 343.455L847.18 350H846.158L843.737 343.455H844.828L846.635 348.67H846.703L848.51 343.455H849.601ZM853.438 350.136C852.808 350.136 852.263 349.997 851.806 349.719C851.352 349.438 851.001 349.045 850.754 348.543C850.509 348.037 850.387 347.449 850.387 346.778C850.387 346.108 850.509 345.517 850.754 345.006C851.001 344.491 851.344 344.091 851.785 343.804C852.228 343.514 852.745 343.369 853.336 343.369C853.677 343.369 854.013 343.426 854.346 343.54C854.678 343.653 854.981 343.838 855.254 344.094C855.526 344.347 855.744 344.682 855.906 345.099C856.067 345.517 856.148 346.031 856.148 346.642V347.068H851.103V346.199H855.126C855.126 345.83 855.052 345.5 854.904 345.21C854.759 344.92 854.552 344.692 854.282 344.524C854.015 344.357 853.7 344.273 853.336 344.273C852.935 344.273 852.589 344.372 852.296 344.571C852.006 344.767 851.783 345.023 851.627 345.338C851.471 345.653 851.393 345.991 851.393 346.352V346.932C851.393 347.426 851.478 347.845 851.648 348.189C851.822 348.53 852.062 348.79 852.369 348.969C852.675 349.145 853.032 349.233 853.438 349.233C853.702 349.233 853.941 349.196 854.154 349.122C854.37 349.045 854.556 348.932 854.712 348.781C854.869 348.628 854.989 348.437 855.075 348.21L856.046 348.483C855.944 348.812 855.772 349.102 855.531 349.352C855.289 349.599 854.991 349.793 854.636 349.932C854.281 350.068 853.881 350.136 853.438 350.136ZM858.684 346.062V350H857.678V343.455H858.65V344.477H858.735C858.888 344.145 859.121 343.878 859.434 343.676C859.746 343.472 860.15 343.369 860.644 343.369C861.087 343.369 861.475 343.46 861.808 343.642C862.14 343.821 862.398 344.094 862.583 344.46C862.768 344.824 862.86 345.284 862.86 345.841V350H861.854V345.909C861.854 345.395 861.721 344.994 861.454 344.707C861.187 344.418 860.82 344.273 860.354 344.273C860.033 344.273 859.746 344.342 859.494 344.482C859.244 344.621 859.046 344.824 858.901 345.091C858.756 345.358 858.684 345.682 858.684 346.062ZM867.544 343.455V344.307H864.152V343.455H867.544ZM865.141 341.886H866.147V348.125C866.147 348.409 866.188 348.622 866.27 348.764C866.355 348.903 866.463 348.997 866.594 349.045C866.728 349.091 866.868 349.114 867.016 349.114C867.127 349.114 867.218 349.108 867.289 349.097C867.36 349.082 867.417 349.071 867.459 349.062L867.664 349.966C867.596 349.991 867.5 350.017 867.378 350.043C867.256 350.071 867.101 350.085 866.914 350.085C866.63 350.085 866.351 350.024 866.078 349.902C865.809 349.78 865.584 349.594 865.405 349.344C865.229 349.094 865.141 348.778 865.141 348.398V341.886ZM875.313 350.119C874.955 350.114 874.597 350.045 874.239 349.915C873.881 349.784 873.554 349.564 873.259 349.254C872.963 348.942 872.726 348.52 872.547 347.989C872.368 347.455 872.279 346.784 872.279 345.977C872.279 345.205 872.351 344.52 872.496 343.923C872.641 343.324 872.851 342.82 873.127 342.411C873.402 341.999 873.735 341.686 874.124 341.473C874.516 341.26 874.958 341.153 875.449 341.153C875.938 341.153 876.373 341.251 876.753 341.447C877.137 341.641 877.449 341.911 877.691 342.257C877.932 342.604 878.088 343.003 878.159 343.455H877.12C877.023 343.062 876.836 342.737 876.557 342.479C876.279 342.22 875.909 342.091 875.449 342.091C874.773 342.091 874.24 342.385 873.851 342.973C873.465 343.561 873.27 344.386 873.267 345.449H873.336C873.495 345.207 873.684 345.001 873.902 344.831C874.124 344.658 874.368 344.524 874.635 344.43C874.902 344.337 875.185 344.29 875.483 344.29C875.983 344.29 876.441 344.415 876.855 344.665C877.27 344.912 877.603 345.254 877.853 345.692C878.103 346.126 878.228 346.625 878.228 347.188C878.228 347.727 878.107 348.222 877.865 348.67C877.624 349.116 877.284 349.472 876.847 349.736C876.412 349.997 875.901 350.125 875.313 350.119ZM875.313 349.182C875.671 349.182 875.992 349.092 876.276 348.913C876.563 348.734 876.789 348.494 876.953 348.193C877.121 347.892 877.205 347.557 877.205 347.188C877.205 346.827 877.124 346.499 876.962 346.203C876.803 345.905 876.583 345.668 876.301 345.491C876.023 345.315 875.705 345.227 875.347 345.227C875.077 345.227 874.826 345.281 874.593 345.389C874.36 345.494 874.155 345.639 873.979 345.824C873.806 346.009 873.669 346.22 873.57 346.459C873.471 346.695 873.421 346.943 873.421 347.205C873.421 347.551 873.502 347.875 873.664 348.176C873.828 348.477 874.053 348.72 874.337 348.905C874.624 349.089 874.949 349.182 875.313 349.182Z" fill="#535862"/>
<path d="M990.846 350V341.273H996.113V342.21H991.903V345.159H995.84V346.097H991.903V349.062H996.181V350H990.846ZM1003.23 343.455L1000.81 350H999.79L997.37 343.455H998.461L1000.27 348.67H1000.34L1002.14 343.455H1003.23ZM1007.07 350.136C1006.44 350.136 1005.9 349.997 1005.44 349.719C1004.98 349.438 1004.63 349.045 1004.39 348.543C1004.14 348.037 1004.02 347.449 1004.02 346.778C1004.02 346.108 1004.14 345.517 1004.39 345.006C1004.63 344.491 1004.98 344.091 1005.42 343.804C1005.86 343.514 1006.38 343.369 1006.97 343.369C1007.31 343.369 1007.65 343.426 1007.98 343.54C1008.31 343.653 1008.61 343.838 1008.89 344.094C1009.16 344.347 1009.38 344.682 1009.54 345.099C1009.7 345.517 1009.78 346.031 1009.78 346.642V347.068H1004.74V346.199H1008.76C1008.76 345.83 1008.68 345.5 1008.54 345.21C1008.39 344.92 1008.18 344.692 1007.91 344.524C1007.65 344.357 1007.33 344.273 1006.97 344.273C1006.57 344.273 1006.22 344.372 1005.93 344.571C1005.64 344.767 1005.42 345.023 1005.26 345.338C1005.1 345.653 1005.03 345.991 1005.03 346.352V346.932C1005.03 347.426 1005.11 347.845 1005.28 348.189C1005.45 348.53 1005.69 348.79 1006 348.969C1006.31 349.145 1006.66 349.233 1007.07 349.233C1007.34 349.233 1007.57 349.196 1007.79 349.122C1008 349.045 1008.19 348.932 1008.35 348.781C1008.5 348.628 1008.62 348.437 1008.71 348.21L1009.68 348.483C1009.58 348.812 1009.4 349.102 1009.16 349.352C1008.92 349.599 1008.62 349.793 1008.27 349.932C1007.91 350.068 1007.51 350.136 1007.07 350.136ZM1012.32 346.062V350H1011.31V343.455H1012.28V344.477H1012.37C1012.52 344.145 1012.75 343.878 1013.07 343.676C1013.38 343.472 1013.78 343.369 1014.28 343.369C1014.72 343.369 1015.11 343.46 1015.44 343.642C1015.77 343.821 1016.03 344.094 1016.22 344.46C1016.4 344.824 1016.49 345.284 1016.49 345.841V350H1015.49V345.909C1015.49 345.395 1015.35 344.994 1015.09 344.707C1014.82 344.418 1014.45 344.273 1013.99 344.273C1013.67 344.273 1013.38 344.342 1013.13 344.482C1012.88 344.621 1012.68 344.824 1012.53 345.091C1012.39 345.358 1012.32 345.682 1012.32 346.062ZM1021.18 343.455V344.307H1017.79V343.455H1021.18ZM1018.77 341.886H1019.78V348.125C1019.78 348.409 1019.82 348.622 1019.9 348.764C1019.99 348.903 1020.1 348.997 1020.23 349.045C1020.36 349.091 1020.5 349.114 1020.65 349.114C1020.76 349.114 1020.85 349.108 1020.92 349.097C1020.99 349.082 1021.05 349.071 1021.09 349.062L1021.3 349.966C1021.23 349.991 1021.13 350.017 1021.01 350.043C1020.89 350.071 1020.73 350.085 1020.55 350.085C1020.26 350.085 1019.98 350.024 1019.71 349.902C1019.44 349.78 1019.22 349.594 1019.04 349.344C1018.86 349.094 1018.77 348.778 1018.77 348.398V341.886ZM1026.32 350L1030.22 342.278V342.21H1025.72V341.273H1031.31V342.261L1027.43 350H1026.32Z" fill="#535862"/>
<path d="M502.401 367.273H503.722V373.013C503.722 373.624 503.579 374.165 503.292 374.636C503.005 375.105 502.601 375.474 502.081 375.744C501.562 376.011 500.952 376.145 500.253 376.145C499.557 376.145 498.949 376.011 498.43 375.744C497.91 375.474 497.506 375.105 497.219 374.636C496.932 374.165 496.789 373.624 496.789 373.013V367.273H498.106V372.906C498.106 373.301 498.192 373.652 498.366 373.959C498.542 374.266 498.79 374.507 499.111 374.683C499.432 374.857 499.813 374.943 500.253 374.943C500.697 374.943 501.079 374.857 501.4 374.683C501.724 374.507 501.971 374.266 502.141 373.959C502.314 373.652 502.401 373.301 502.401 372.906V367.273ZM506.808 372.114V376H505.534V369.455H506.757V370.52H506.838C506.989 370.173 507.225 369.895 507.546 369.685C507.869 369.474 508.277 369.369 508.769 369.369C509.215 369.369 509.605 369.463 509.941 369.651C510.276 369.835 510.536 370.111 510.72 370.477C510.905 370.844 510.997 371.297 510.997 371.837V376H509.723V371.99C509.723 371.516 509.6 371.145 509.352 370.878C509.105 370.608 508.766 370.473 508.334 370.473C508.039 370.473 507.776 370.537 507.546 370.665C507.318 370.793 507.138 370.98 507.004 371.227C506.874 371.472 506.808 371.767 506.808 372.114ZM512.706 376V369.455H513.98V376H512.706ZM513.35 368.445C513.128 368.445 512.938 368.371 512.779 368.223C512.622 368.072 512.544 367.893 512.544 367.686C512.544 367.476 512.622 367.297 512.779 367.149C512.938 366.999 513.128 366.923 513.35 366.923C513.571 366.923 513.76 366.999 513.916 367.149C514.075 367.297 514.155 367.476 514.155 367.686C514.155 367.893 514.075 368.072 513.916 368.223C513.76 368.371 513.571 368.445 513.35 368.445ZM518.75 369.455V370.477H515.175V369.455H518.75ZM516.133 367.886H517.407V374.078C517.407 374.325 517.444 374.511 517.518 374.636C517.592 374.759 517.687 374.842 517.804 374.888C517.923 374.93 518.052 374.952 518.192 374.952C518.294 374.952 518.383 374.945 518.46 374.93C518.537 374.916 518.596 374.905 518.639 374.896L518.869 375.949C518.795 375.977 518.69 376.006 518.554 376.034C518.417 376.065 518.247 376.082 518.042 376.085C517.707 376.091 517.395 376.031 517.105 375.906C516.815 375.781 516.581 375.588 516.402 375.327C516.223 375.065 516.133 374.737 516.133 374.342V367.886ZM524.175 376.081C523.942 376.081 523.741 375.999 523.574 375.834C523.406 375.666 523.322 375.464 523.322 375.229C523.322 374.996 523.406 374.797 523.574 374.632C523.741 374.464 523.942 374.381 524.175 374.381C524.407 374.381 524.608 374.464 524.775 374.632C524.943 374.797 525.027 374.996 525.027 375.229C525.027 375.385 524.987 375.528 524.907 375.659C524.831 375.787 524.729 375.889 524.601 375.966C524.473 376.043 524.331 376.081 524.175 376.081ZM524.175 371.317C523.942 371.317 523.741 371.233 523.574 371.065C523.406 370.898 523.322 370.697 523.322 370.464C523.322 370.232 523.406 370.033 523.574 369.868C523.741 369.7 523.942 369.616 524.175 369.616C524.407 369.616 524.608 369.7 524.775 369.868C524.943 370.033 525.027 370.232 525.027 370.464C525.027 370.621 524.987 370.764 524.907 370.895C524.831 371.023 524.729 371.125 524.601 371.202C524.473 371.278 524.331 371.317 524.175 371.317ZM529.909 378.455V369.455H531.154V370.516H531.26C531.334 370.379 531.441 370.222 531.58 370.043C531.719 369.864 531.912 369.707 532.159 369.574C532.406 369.438 532.733 369.369 533.139 369.369C533.668 369.369 534.139 369.503 534.554 369.77C534.969 370.037 535.294 370.422 535.53 370.925C535.769 371.428 535.888 372.033 535.888 372.74C535.888 373.447 535.77 374.054 535.534 374.56C535.298 375.062 534.975 375.45 534.563 375.723C534.151 375.993 533.681 376.128 533.152 376.128C532.754 376.128 532.429 376.061 532.176 375.928C531.926 375.794 531.73 375.638 531.588 375.459C531.446 375.28 531.337 375.121 531.26 374.982H531.183V378.455H529.909ZM531.158 372.727C531.158 373.187 531.225 373.591 531.358 373.938C531.492 374.284 531.685 374.555 531.938 374.751C532.191 374.945 532.5 375.041 532.867 375.041C533.247 375.041 533.566 374.94 533.821 374.739C534.077 374.534 534.27 374.257 534.401 373.908C534.534 373.558 534.601 373.165 534.601 372.727C534.601 372.295 534.536 371.908 534.405 371.564C534.277 371.22 534.084 370.949 533.825 370.75C533.57 370.551 533.25 370.452 532.867 370.452C532.497 370.452 532.185 370.547 531.929 370.737C531.676 370.928 531.485 371.193 531.354 371.534C531.223 371.875 531.158 372.273 531.158 372.727ZM540.137 376.132C539.492 376.132 538.936 375.994 538.47 375.719C538.007 375.44 537.649 375.05 537.396 374.547C537.146 374.041 537.021 373.449 537.021 372.77C537.021 372.099 537.146 371.509 537.396 370.997C537.649 370.486 538.002 370.087 538.453 369.8C538.908 369.513 539.439 369.369 540.047 369.369C540.416 369.369 540.774 369.43 541.121 369.553C541.468 369.675 541.779 369.866 542.054 370.128C542.33 370.389 542.547 370.729 542.706 371.146C542.865 371.561 542.945 372.065 542.945 372.659V373.111H537.742V372.156H541.696C541.696 371.821 541.628 371.524 541.492 371.266C541.355 371.004 541.164 370.798 540.916 370.648C540.672 370.497 540.385 370.422 540.056 370.422C539.698 370.422 539.385 370.51 539.118 370.686C538.854 370.859 538.649 371.087 538.504 371.368C538.362 371.646 538.291 371.949 538.291 372.276V373.021C538.291 373.459 538.368 373.831 538.521 374.138C538.678 374.445 538.895 374.679 539.173 374.841C539.452 375 539.777 375.08 540.149 375.08C540.391 375.08 540.611 375.045 540.81 374.977C541.009 374.906 541.181 374.801 541.325 374.662C541.47 374.523 541.581 374.351 541.658 374.146L542.864 374.364C542.767 374.719 542.594 375.03 542.344 375.297C542.097 375.561 541.786 375.767 541.411 375.915C541.039 376.06 540.614 376.132 540.137 376.132ZM547.116 376.132C546.502 376.132 545.966 375.991 545.509 375.71C545.052 375.429 544.697 375.036 544.444 374.53C544.191 374.024 544.064 373.433 544.064 372.757C544.064 372.078 544.191 371.484 544.444 370.976C544.697 370.467 545.052 370.072 545.509 369.791C545.966 369.51 546.502 369.369 547.116 369.369C547.729 369.369 548.265 369.51 548.722 369.791C549.18 370.072 549.535 370.467 549.787 370.976C550.04 371.484 550.167 372.078 550.167 372.757C550.167 373.433 550.04 374.024 549.787 374.53C549.535 375.036 549.18 375.429 548.722 375.71C548.265 375.991 547.729 376.132 547.116 376.132ZM547.12 375.062C547.518 375.062 547.847 374.957 548.108 374.747C548.37 374.537 548.563 374.257 548.688 373.908C548.816 373.558 548.88 373.173 548.88 372.753C548.88 372.335 548.816 371.952 548.688 371.602C548.563 371.25 548.37 370.967 548.108 370.754C547.847 370.541 547.518 370.435 547.12 370.435C546.719 370.435 546.387 370.541 546.123 370.754C545.861 370.967 545.667 371.25 545.539 371.602C545.414 371.952 545.351 372.335 545.351 372.753C545.351 373.173 545.414 373.558 545.539 373.908C545.667 374.257 545.861 374.537 546.123 374.747C546.387 374.957 546.719 375.062 547.12 375.062ZM551.589 378.455V369.455H552.833V370.516H552.94C553.014 370.379 553.12 370.222 553.259 370.043C553.399 369.864 553.592 369.707 553.839 369.574C554.086 369.438 554.413 369.369 554.819 369.369C555.347 369.369 555.819 369.503 556.234 369.77C556.649 370.037 556.974 370.422 557.21 370.925C557.448 371.428 557.568 372.033 557.568 372.74C557.568 373.447 557.45 374.054 557.214 374.56C556.978 375.062 556.654 375.45 556.242 375.723C555.83 375.993 555.36 376.128 554.832 376.128C554.434 376.128 554.109 376.061 553.856 375.928C553.606 375.794 553.41 375.638 553.268 375.459C553.126 375.28 553.017 375.121 552.94 374.982H552.863V378.455H551.589ZM552.838 372.727C552.838 373.187 552.904 373.591 553.038 373.938C553.171 374.284 553.365 374.555 553.617 374.751C553.87 374.945 554.18 375.041 554.546 375.041C554.927 375.041 555.245 374.94 555.501 374.739C555.757 374.534 555.95 374.257 556.08 373.908C556.214 373.558 556.281 373.165 556.281 372.727C556.281 372.295 556.215 371.908 556.085 371.564C555.957 371.22 555.764 370.949 555.505 370.75C555.249 370.551 554.93 370.452 554.546 370.452C554.177 370.452 553.865 370.547 553.609 370.737C553.356 370.928 553.164 371.193 553.034 371.534C552.903 371.875 552.838 372.273 552.838 372.727ZM560.269 367.273V376H558.995V367.273H560.269ZM564.805 376.132C564.16 376.132 563.604 375.994 563.138 375.719C562.675 375.44 562.317 375.05 562.064 374.547C561.814 374.041 561.689 373.449 561.689 372.77C561.689 372.099 561.814 371.509 562.064 370.997C562.317 370.486 562.67 370.087 563.121 369.8C563.576 369.513 564.107 369.369 564.715 369.369C565.084 369.369 565.442 369.43 565.789 369.553C566.135 369.675 566.447 369.866 566.722 370.128C566.998 370.389 567.215 370.729 567.374 371.146C567.533 371.561 567.613 372.065 567.613 372.659V373.111H562.41V372.156H566.364C566.364 371.821 566.296 371.524 566.16 371.266C566.023 371.004 565.831 370.798 565.584 370.648C565.34 370.497 565.053 370.422 564.724 370.422C564.366 370.422 564.053 370.51 563.786 370.686C563.522 370.859 563.317 371.087 563.172 371.368C563.03 371.646 562.959 371.949 562.959 372.276V373.021C562.959 373.459 563.036 373.831 563.189 374.138C563.346 374.445 563.563 374.679 563.841 374.841C564.12 375 564.445 375.08 564.817 375.08C565.059 375.08 565.279 375.045 565.478 374.977C565.677 374.906 565.849 374.801 565.993 374.662C566.138 374.523 566.249 374.351 566.326 374.146L567.532 374.364C567.435 374.719 567.262 375.03 567.012 375.297C566.765 375.561 566.454 375.767 566.079 375.915C565.706 376.06 565.282 376.132 564.805 376.132Z" fill="#535862"/>
<g clip-path="url(#clip0_9654_13953)">
<g clip-path="url(#clip1_9654_13953)">
<path d="M84 72H167V329H84V72Z" fill="#04D590"/>
<path d="M84 146.958H167V329H84V146.958Z" fill="#04D590"/>
<path d="M84 232.625H167V329H84V232.625Z" fill="#04D590"/>
</g>
<g clip-path="url(#clip2_9654_13953)">
<path d="M227.429 40H310.429V329H227.429V40Z" fill="#04D590"/>
<path d="M227.429 124.292H310.429V329H227.429V124.292Z" fill="#04D590"/>
<path d="M227.429 220.625H310.429V329H227.429V220.625Z" fill="#04D590"/>
</g>
<g clip-path="url(#clip3_9654_13953)">
<path d="M370.857 64H453.857V329H370.857V64Z" fill="#04D590"/>
<path d="M370.857 141.292H453.857V329H370.857V141.292Z" fill="#04D590"/>
<path d="M370.857 229.625H453.857V329H370.857V229.625Z" fill="#04D590"/>
</g>
<g clip-path="url(#clip4_9654_13953)">
<path d="M514.286 48H597.286V329H514.286V48Z" fill="#04D590"/>
<path d="M514.286 129.958H597.286V329H514.286V129.958Z" fill="#04D590"/>
<path d="M514.286 223.625H597.286V329H514.286V223.625Z" fill="#04D590"/>
</g>
<g clip-path="url(#clip5_9654_13953)">
<path d="M657.714 64H740.714V329H657.714V64Z" fill="#04D590"/>
<path d="M657.714 141.292H740.714V329H657.714V141.292Z" fill="#04D590"/>
<path d="M657.714 229.625H740.714V329H657.714V229.625Z" fill="#04D590"/>
</g>
<g clip-path="url(#clip6_9654_13953)">
<path d="M801.143 56H884.143V329H801.143V56Z" fill="#04D590"/>
<path d="M801.143 135.625H884.143V329H801.143V135.625Z" fill="#04D590"/>
<path d="M801.143 226.625H884.143V329H801.143V226.625Z" fill="#04D590"/>
</g>
<g clip-path="url(#clip7_9654_13953)">
<path d="M944.571 80H1027.57V329H944.571V80Z" fill="#04D590"/>
<path d="M944.571 152.625H1027.57V329H944.571V152.625Z" fill="#04D590"/>
<path d="M944.571 235.625H1027.57V329H944.571V235.625Z" fill="#04D590"/>
</g>
</g>
<defs>
<clipPath id="clip0_9654_13953">
<rect width="968" height="305" fill="white" transform="translate(72 24)"/>
</clipPath>
<clipPath id="clip1_9654_13953">
<path d="M84 76C84 73.7909 85.7909 72 88 72H163C165.209 72 167 73.7909 167 76V329H84V76Z" fill="white"/>
</clipPath>
<clipPath id="clip2_9654_13953">
<path d="M227.429 44C227.429 41.7909 229.22 40 231.429 40H306.429C308.638 40 310.429 41.7909 310.429 44V329H227.429V44Z" fill="white"/>
</clipPath>
<clipPath id="clip3_9654_13953">
<path d="M370.857 68C370.857 65.7909 372.648 64 374.857 64H449.857C452.067 64 453.857 65.7909 453.857 68V329H370.857V68Z" fill="white"/>
</clipPath>
<clipPath id="clip4_9654_13953">
<path d="M514.286 52C514.286 49.7909 516.077 48 518.286 48H593.286C595.495 48 597.286 49.7909 597.286 52V329H514.286V52Z" fill="white"/>
</clipPath>
<clipPath id="clip5_9654_13953">
<path d="M657.714 68C657.714 65.7909 659.505 64 661.714 64H736.714C738.923 64 740.714 65.7909 740.714 68V329H657.714V68Z" fill="white"/>
</clipPath>
<clipPath id="clip6_9654_13953">
<path d="M801.143 60C801.143 57.7909 802.933 56 805.143 56H880.143C882.352 56 884.143 57.7909 884.143 60V329H801.143V60Z" fill="white"/>
</clipPath>
<clipPath id="clip7_9654_13953">
<path d="M944.571 84C944.571 81.7909 946.362 80 948.571 80H1023.57C1025.78 80 1027.57 81.7909 1027.57 84V329H944.571V84Z" fill="white"/>
</clipPath>
</defs>
</svg>
