<svg width="24" height="24" viewBox="0 0 24 24" fill="none" xmlns="http://www.w3.org/2000/svg">
<path d="M16.566 20.0961L19.096 17.5661V19.6351H19.866V16.2501H16.48V17.0201H18.549L16.019 19.5501L16.566 20.0961ZM5.616 20.0001C5.168 20.0001 4.78667 19.8428 4.472 19.5281C4.15733 19.2135 4 18.8325 4 18.3851V5.61512C4 5.16846 4.15733 4.78746 4.472 4.47212C4.78667 4.15746 5.168 4.00012 5.616 4.00012H18.385C18.8317 4.00012 19.2127 4.15746 19.528 4.47212C19.8427 4.78679 20 5.16812 20 5.61612V11.5661C19.8247 11.5055 19.6567 11.4561 19.496 11.4181C19.336 11.3808 19.1707 11.3435 19 11.3061V5.61612C19 5.46212 18.936 5.32079 18.808 5.19212C18.68 5.06346 18.5387 4.99946 18.384 5.00012H5.616C5.462 5.00012 5.32067 5.06412 5.192 5.19212C5.06333 5.32012 4.99933 5.46146 5 5.61612V18.3851C5 18.5385 5.064 18.6795 5.192 18.8081C5.32 18.9368 5.461 19.0008 5.615 19.0001H11.281C11.305 19.1868 11.336 19.3605 11.374 19.5211C11.412 19.6811 11.461 19.8408 11.521 20.0001H5.616ZM5 18.0001V19.0001V5.00012V11.3061V11.2311V18.0001ZM7.5 16.2701H11.46C11.4967 16.0988 11.5467 15.9331 11.61 15.7731L11.81 15.2691H7.5V16.2701ZM7.5 12.5001H14.08C14.4087 12.2695 14.7323 12.0741 15.051 11.9141C15.3697 11.7535 15.7117 11.6275 16.077 11.5361V11.5001H7.5V12.5001ZM7.5 8.73012H16.5V7.73012H7.5V8.73012ZM18 22.1171C16.886 22.1171 15.941 21.7288 15.165 20.9521C14.3883 20.1755 14 19.2301 14 18.1161C14 17.0021 14.3883 16.0568 15.165 15.2801C15.9417 14.5035 16.8867 14.1155 18 14.1161C19.1133 14.1168 20.0587 14.5048 20.836 15.2801C21.6133 16.0555 22.0013 17.0008 22 18.1161C22 19.2295 21.612 20.1745 20.836 20.9511C20.0587 21.7278 19.1133 22.1161 18 22.1161" fill="white"/>
</svg>
