<svg width="100" height="100" viewBox="0 0 100 100" fill="none" xmlns="http://www.w3.org/2000/svg">
<path d="M47.6766 52.2388H26.0217V73.8936H47.6766V52.2388Z" fill="black"/>
<path d="M73.8089 52.2388H52.1541V73.8936H73.8089V52.2388Z" fill="black"/>
<path d="M47.6766 0H26.0217V21.6288H47.6766V0Z" fill="black"/>
<path d="M47.6766 26.1064H26.0217V47.7613H47.6766V26.1064Z" fill="black"/>
<path d="M100 0H78.2866V21.6288H100V0Z" fill="black"/>
<path d="M73.8089 26.1064H52.1541V47.7613H73.8089V26.1064Z" fill="black"/>
<path d="M21.544 52.2388H0V73.8936H21.544V52.2388Z" fill="black"/>
<path d="M21.544 26.1064H0V47.7613H21.544V26.1064Z" fill="black"/>
<path d="M21.544 0H0V21.6288H21.544V0Z" fill="black"/>
<path d="M21.544 78.3711H0V99.9999H21.544V78.3711Z" fill="black"/>
<path d="M100 26.1064H78.2866V47.7613H100V26.1064Z" fill="black"/>
<path d="M100 78.3711H78.2866V99.9999H100V78.3711Z" fill="black"/>
<path d="M100 52.2388H78.2866V73.8936H100V52.2388Z" fill="black"/>
<path d="M73.8089 78.3711H52.1541V99.9999H73.8089V78.3711Z" fill="black"/>
<path d="M73.8089 0H52.1541V21.6288H73.8089V0Z" fill="black"/>
<path d="M47.6766 78.3711H26.0217V99.9999H47.6766V78.3711Z" fill="black"/>
</svg>
