<svg width="24" height="24" viewBox="0 0 24 24" fill="none" xmlns="http://www.w3.org/2000/svg">
<path d="M22.8076 7.80762L20.7441 8L22.6836 7.20605L22.8076 7.80762ZM22.6934 3.33105L19.5 5.01465L22.0947 2.44434L22.6934 3.33105ZM18.3379 1.1416L17.0146 2.7373L17.8252 0.803711L18.3379 1.1416Z" stroke="white"/>
<path d="M7.55762 17.5967C7.89652 17.4 8.33009 17.5144 8.52637 17.8477L10.4033 21.0371C10.5985 21.3687 10.4875 21.7963 10.1504 21.9922L9.44238 22.4033C9.10348 22.6 8.66992 22.4856 8.47363 22.1523L6.59668 18.9629C6.4015 18.6313 6.51251 18.2037 6.84961 18.0078L7.55762 17.5967Z" stroke="white"/>
<path d="M12.1953 15.0215L5.43848 18.7002C5.42997 18.703 5.41911 18.7078 5.40527 18.7119C5.36029 18.7252 5.28828 18.7431 5.19434 18.7578C5.00644 18.7873 4.73232 18.8019 4.4043 18.7373C3.76534 18.6114 2.84135 18.1671 1.93066 16.7412C1.02134 15.3174 1.01473 14.2904 1.18066 13.6514C1.26597 13.3229 1.40261 13.0758 1.5166 12.9121C1.5736 12.8303 1.62461 12.77 1.65918 12.7324C1.67302 12.7174 1.68341 12.7061 1.69043 12.6992L7.80762 8.15332L12.1953 15.0215Z" stroke="white"/>
<path d="M11.4717 1.99902C11.5626 2.01327 11.6986 2.05917 11.8818 2.1582C12.2482 2.35625 12.7125 2.71637 13.2393 3.22168C14.2872 4.22697 15.503 5.73011 16.5723 7.4043C17.6416 9.07864 18.4944 10.8149 18.9658 12.1885C19.2027 12.8788 19.3338 13.4515 19.3594 13.8672C19.3722 14.0754 19.3574 14.2182 19.332 14.3066C19.3208 14.3457 19.3082 14.3658 19.3018 14.376C19.2897 14.3776 19.2664 14.3802 19.2266 14.374C19.1357 14.3599 18.999 14.314 18.8154 14.2148C18.449 14.0168 17.9847 13.6566 17.458 13.1514C16.41 12.146 15.1944 10.6421 14.125 8.96777C13.0557 7.29343 12.2029 5.55815 11.7314 4.18457C11.4945 3.49424 11.3635 2.92155 11.3379 2.50586C11.3251 2.29764 11.3408 2.15483 11.3662 2.06641C11.3773 2.02792 11.387 2.00648 11.3936 1.99609C11.4049 1.99435 11.4293 1.99241 11.4717 1.99902Z" stroke="white"/>
<path d="M16.1171 11.7618C16.7891 11.3326 16.508 9.69154 15.4892 8.09646C14.4704 6.50139 13.0997 5.55629 12.4277 5.98551C11.7557 6.41474 12.0368 8.05576 13.0556 9.65083C14.0744 11.2459 15.4451 12.191 16.1171 11.7618Z" fill="white"/>
<path d="M7.28418 8.32324C7.28095 8.32827 7.27618 8.33811 7.26855 8.35156C7.25051 8.3834 7.22136 8.43863 7.19043 8.51758C7.12881 8.6749 7.05675 8.92935 7.04102 9.2832C7.00978 9.98596 7.20008 11.1276 8.2207 12.7256C9.23949 14.3206 10.21 14.9721 10.877 15.2393C11.213 15.3738 11.4829 15.4157 11.6592 15.4258C11.7476 15.4309 11.8135 15.428 11.8525 15.4248C11.8719 15.4232 11.8849 15.4207 11.8906 15.4199H11.8896L11.9102 15.416L11.9346 15.4141H11.9375C11.9398 15.4138 11.9438 15.4135 11.9482 15.4131C11.9571 15.4122 11.9702 15.4099 11.9873 15.4082C12.0221 15.4047 12.0738 15.4002 12.1396 15.3936C12.2717 15.3803 12.4629 15.3611 12.6982 15.3379C13.1689 15.2916 13.818 15.229 14.5312 15.1631C15.7063 15.0546 17.0644 14.9377 18.0869 14.8721C17.7079 14.6003 17.2924 14.2303 16.8633 13.7939C15.7892 12.7016 14.5506 11.1214 13.4502 9.39844C12.3499 7.67558 11.4377 5.88785 10.8984 4.4541C10.6845 3.88531 10.5241 3.35635 10.4365 2.90039C9.94189 3.80599 9.25482 4.99714 8.65234 6.02344C8.2867 6.6463 7.95125 7.21231 7.70703 7.62207C7.58502 7.82679 7.48575 7.99264 7.41699 8.10742C7.38259 8.16484 7.35608 8.20993 7.33789 8.24023C7.32884 8.25532 7.32108 8.26664 7.31641 8.27441C7.31413 8.2782 7.3127 8.28125 7.31152 8.2832L7.31055 8.28516L7.30957 8.28613L7.29688 8.30664L7.28223 8.3252H7.2832L7.28418 8.32422V8.32324ZM7.28418 8.32324L7.28613 8.32227V8.32129C7.28572 8.32191 7.28475 8.32236 7.28418 8.32324Z" stroke="white"/>
<path d="M5.22448 12.4485C5.29596 12.3966 5.39572 12.4122 5.44778 12.4836C5.49988 12.5551 5.48413 12.6547 5.41272 12.7069L2.81055 14.6061C2.7864 14.6238 2.75721 14.6349 2.72733 14.6367L2.72635 14.6368C2.69957 14.6385 2.67243 14.6335 2.64814 14.6221C2.63607 14.6164 2.62474 14.6091 2.61452 14.6007L2.58725 14.5711C2.53507 14.4996 2.55077 14.399 2.62225 14.3468L5.22448 12.4485Z" fill="white" stroke="white"/>
</svg>
