<svg width="24" height="24" viewBox="0 0 24 24" fill="none" xmlns="http://www.w3.org/2000/svg">
<path d="M21 7.00012V19.0001C21 19.5501 20.8043 20.0211 20.413 20.4131C20.0217 20.8051 19.5507 21.0008 19 21.0001H5C4.45 21.0001 3.97933 20.8045 3.588 20.4131C3.19667 20.0218 3.00067 19.5508 3 19.0001V5.00012C3 4.45012 3.196 3.97946 3.588 3.58812C3.98 3.19679 4.45067 3.00079 5 3.00012H17L21 7.00012ZM19 7.85012L16.15 5.00012H5V19.0001H19V7.85012ZM12 18.0001C12.8333 18.0001 13.5417 17.7085 14.125 17.1251C14.7083 16.5418 15 15.8335 15 15.0001C15 14.1668 14.7083 13.4585 14.125 12.8751C13.5417 12.2918 12.8333 12.0001 12 12.0001C11.1667 12.0001 10.4583 12.2918 9.875 12.8751C9.29167 13.4585 9 14.1668 9 15.0001C9 15.8335 9.29167 16.5418 9.875 17.1251C10.4583 17.7085 11.1667 18.0001 12 18.0001ZM6 10.0001H15V6.00012H6V10.0001ZM5 7.85012V19.0001V5.00012V7.85012Z" fill="#04D590"/>
</svg>
