<svg width="24" height="24" viewBox="0 0 24 24" fill="none" xmlns="http://www.w3.org/2000/svg">
<path d="M21 21.0001L16.657 16.6571M16.657 16.6571C17.3999 15.9142 17.9892 15.0323 18.3912 14.0616C18.7933 13.091 19.0002 12.0507 19.0002 11.0001C19.0002 9.94948 18.7933 8.90917 18.3913 7.93854C17.9892 6.96791 17.3999 6.08597 16.657 5.34308C15.9141 4.6002 15.0322 4.01091 14.0616 3.60886C13.0909 3.20681 12.0506 2.99988 11 2.99988C9.94942 2.99988 8.90911 3.20681 7.93848 3.60886C6.96785 4.01091 6.08591 4.6002 5.34302 5.34308C3.84269 6.84341 2.99982 8.8783 2.99982 11.0001C2.99982 13.1219 3.84269 15.1568 5.34302 16.6571C6.84335 18.1574 8.87824 19.0003 11 19.0003C13.1218 19.0003 15.1567 18.1574 16.657 16.6571Z" stroke="white" stroke-width="2" stroke-linecap="round" stroke-linejoin="round"/>
</svg>
