<svg width="25" height="24" viewBox="0 0 25 24" fill="none" xmlns="http://www.w3.org/2000/svg">
<path d="M12.667 20C10.8105 20 9.03 19.2625 7.71724 17.9497C6.40449 16.637 5.66699 14.8565 5.66699 13C5.66699 11.1435 6.40449 9.36301 7.71724 8.05025C9.03 6.7375 10.8105 6 12.667 6C14.5235 6 16.304 6.7375 17.6167 8.05025C18.9295 9.36301 19.667 11.1435 19.667 13C19.667 14.8565 18.9295 16.637 17.6167 17.9497C16.304 19.2625 14.5235 20 12.667 20ZM19.697 7.39L21.117 5.97C20.667 5.46 20.217 5 19.707 4.56L18.287 6C16.737 4.74 14.787 4 12.667 4C10.28 4 7.99086 4.94821 6.30303 6.63604C4.6152 8.32387 3.66699 10.6131 3.66699 13C3.66699 15.3869 4.6152 17.6761 6.30303 19.364C7.99086 21.0518 10.28 22 12.667 22C17.667 22 21.667 17.97 21.667 13C21.667 10.88 20.927 8.93 19.697 7.39ZM11.667 14H13.667V8H11.667M15.667 1H9.66699V3H15.667V1Z" fill="white"/>
</svg>
