<svg width="24" height="24" viewBox="0 0 24 24" fill="none" xmlns="http://www.w3.org/2000/svg">
<path d="M11 7.99999V13L15.25 15.52L16.02 14.24L12.5 12.15V7.99999H11ZM21 9.99999V2.99999L18.36 5.63999C17.5271 4.80135 16.5361 4.13621 15.4444 3.68306C14.3527 3.22991 13.182 2.99774 12 2.99999C10.22 2.99999 8.47991 3.52783 6.99987 4.51676C5.51983 5.50569 4.36628 6.9113 3.68509 8.55583C3.0039 10.2004 2.82567 12.01 3.17294 13.7558C3.5202 15.5016 4.37737 17.1053 5.63604 18.3639C6.89472 19.6226 8.49836 20.4798 10.2442 20.8271C11.99 21.1743 13.7996 20.9961 15.4442 20.3149C17.0887 19.6337 18.4943 18.4802 19.4832 17.0001C20.4722 15.5201 21 13.78 21 12H19C19 15.86 15.86 19 12 19C8.14 19 5 15.86 5 12C5 8.13999 8.14 4.99999 12 4.99999C13.93 4.99999 15.68 5.78999 16.95 7.04999L14 9.99999H21Z" fill="white"/>
</svg>
