<svg width="25" height="24" viewBox="0 0 25 24" fill="none" xmlns="http://www.w3.org/2000/svg">
<g clip-path="url(#clip0_9626_14319)">
<path d="M8.48214 3C7.65435 3.00332 6.86141 3.33626 6.27607 3.92628C5.69073 4.5163 5.36043 5.31559 5.35714 6.15C5.35714 7.8798 6.76607 9.3 8.48214 9.3C10.1982 9.3 11.6071 7.8798 11.6071 6.15C11.6071 4.4202 10.1982 3 8.48214 3ZM16.5179 3C15.6901 3.00332 14.8971 3.33626 14.3118 3.92628C13.7264 4.5163 13.3961 5.31559 13.3929 6.15C13.3929 7.8798 14.8018 9.3 16.5179 9.3C18.2339 9.3 19.6429 7.8798 19.6429 6.15C19.6429 4.4202 18.2339 3 16.5179 3ZM8.48214 4.8C9.23214 4.8 9.82143 5.394 9.82143 6.15C9.82143 6.906 9.23214 7.5 8.48214 7.5C7.73214 7.5 7.14286 6.906 7.14286 6.15C7.14286 5.394 7.73214 4.8 8.48214 4.8ZM16.5179 4.8C17.2679 4.8 17.8571 5.394 17.8571 6.15C17.8571 6.906 17.2679 7.5 16.5179 7.5C15.7679 7.5 15.1786 6.906 15.1786 6.15C15.1786 5.394 15.7679 4.8 16.5179 4.8ZM4.46429 8.4C2.5 8.4 0.892857 10.02 0.892857 12C0.892857 13.0017 1.31875 13.9053 1.98125 14.5596C1.37372 14.9732 0.87565 15.5302 0.530353 16.1821C0.185056 16.834 0.00299315 17.561 0 18.3H1.78571C1.78571 16.7988 2.975 15.6 4.46429 15.6C5.95357 15.6 7.14286 16.7988 7.14286 18.3H8.92857C8.92558 17.561 8.74352 16.834 8.39822 16.1821C8.05292 15.5302 7.55485 14.9732 6.94732 14.5596C7.60982 13.9053 8.03571 13.0026 8.03571 12C8.03571 10.02 6.42857 8.4 4.46429 8.4ZM8.92857 18.3C8.37054 19.0524 8.03571 19.9983 8.03571 21H9.82143C9.82143 19.4988 11.0107 18.3 12.5 18.3C13.9893 18.3 15.1786 19.4988 15.1786 21H16.9643C16.963 20.0265 16.6498 19.0795 16.0714 18.3C15.7679 17.8923 15.4018 17.544 14.983 17.2596C15.6455 16.6053 16.0714 15.7026 16.0714 14.7C16.0714 12.72 14.4643 11.1 12.5 11.1C10.5357 11.1 8.92857 12.72 8.92857 14.7C8.92857 15.7017 9.35446 16.6053 10.017 17.2596C9.59855 17.542 9.23056 17.8938 8.92857 18.3ZM16.0714 18.3H17.8571C17.8571 16.7988 19.0464 15.6 20.5357 15.6C22.025 15.6 23.2143 16.7988 23.2143 18.3H25C24.997 17.561 24.8149 16.834 24.4696 16.1821C24.1243 15.5302 23.6263 14.9732 23.0187 14.5596C23.6812 13.9053 24.1071 13.0026 24.1071 12C24.1071 10.02 22.5 8.4 20.5357 8.4C18.5714 8.4 16.9643 10.02 16.9643 12C16.9643 13.0017 17.3902 13.9053 18.0527 14.5596C17.4452 14.9732 16.9471 15.5302 16.6018 16.1821C16.2565 16.834 16.0744 17.561 16.0714 18.3ZM4.46429 10.2C5.46161 10.2 6.25 10.9947 6.25 12C6.25 13.0053 5.46161 13.8 4.46429 13.8C3.46696 13.8 2.67857 13.0053 2.67857 12C2.67857 10.9947 3.46696 10.2 4.46429 10.2ZM20.5357 10.2C21.533 10.2 22.3214 10.9947 22.3214 12C22.3214 13.0053 21.533 13.8 20.5357 13.8C19.5384 13.8 18.75 13.0053 18.75 12C18.75 10.9947 19.5384 10.2 20.5357 10.2ZM12.5 12.9C13.4973 12.9 14.2857 13.6947 14.2857 14.7C14.2857 15.7053 13.4973 16.5 12.5 16.5C11.5027 16.5 10.7143 15.7053 10.7143 14.7C10.7143 13.6947 11.5027 12.9 12.5 12.9Z" fill="white"/>
</g>
<defs>
<clipPath id="clip0_9626_14319">
<rect width="24" height="24" fill="white" transform="translate(0.333008)"/>
</clipPath>
</defs>
</svg>
