<svg width="24" height="24" viewBox="0 0 24 24" fill="none" xmlns="http://www.w3.org/2000/svg">
<g clip-path="url(#clip0_9620_21905)">
<path fill-rule="evenodd" clip-rule="evenodd" d="M10.5733 0C13.493 0 16.1368 1.17206 18.0502 3.06751C19.9636 4.96249 21.147 7.5804 21.147 10.4721C21.147 12.5874 20.5131 14.5565 19.4239 16.2035L24 21.1435L20.8445 24L16.4312 19.1903C14.7546 20.2982 12.7399 20.9437 10.5733 20.9437C7.65396 20.9437 5.01018 19.7717 3.0968 17.8767C1.18343 15.9812 0 13.3633 0 10.4716C0 7.5804 1.18343 4.96203 3.0968 3.06704C5.01018 1.17206 7.65396 0 10.5733 0ZM9.81349 8.34974C10.3839 8.34974 10.8464 8.80778 10.8464 9.37271C10.8464 9.93765 10.3839 10.3957 9.81349 10.3957C9.24308 10.3957 8.78059 9.93765 8.78059 9.37271C8.78059 8.80778 9.24308 8.34974 9.81349 8.34974ZM2.60592 10.1486C3.75669 8.68776 5.04047 7.52368 6.40379 6.74027C7.73965 5.97234 9.15266 5.56728 10.5941 5.59963C11.9446 5.63057 13.306 6.05157 14.6367 6.82091C15.9631 7.58744 17.2663 8.70464 18.5046 10.1289L18.7617 10.4243L18.543 10.7478C17.5399 12.2339 16.3129 13.3924 14.968 14.1758C13.5934 14.977 12.0951 15.3858 10.5865 15.3544C9.12615 15.324 7.66343 14.88 6.30012 14.0924C4.93728 13.3052 3.66959 12.1744 2.59976 10.7722L2.36166 10.4594L2.60592 10.1486ZM10.5638 7.83919C11.298 7.83919 11.965 8.13549 12.4469 8.61275C12.9283 9.08955 13.227 9.75012 13.227 10.4773C13.227 11.2044 12.9283 11.8645 12.4469 12.3418C11.965 12.819 11.298 13.1149 10.5638 13.1149C9.82959 13.1149 9.16402 12.819 8.68213 12.3418C8.19882 11.8645 7.90012 11.2044 7.90012 10.4773C7.90012 9.75059 8.19834 9.09189 8.68118 8.61369C9.16544 8.13408 9.83053 7.83919 10.5638 7.83919ZM6.92213 7.62588C5.76994 8.28786 4.67314 9.25551 3.67101 10.4665C4.60308 11.6174 5.67669 12.5481 6.81846 13.2068C8.03503 13.9095 9.32828 14.3057 10.6069 14.3324C11.9228 14.3596 13.2355 13.9995 14.4464 13.294C15.5598 12.6451 16.5893 11.7032 17.4599 10.5007C16.3792 9.30661 15.2535 8.36474 14.1146 7.70652C12.9311 7.0225 11.7382 6.64838 10.5737 6.62166C9.32923 6.59353 8.09704 6.9503 6.92213 7.62588ZM17.2161 3.89358C15.5162 2.21003 13.1673 1.16831 10.5733 1.16831C7.97917 1.16831 5.63077 2.21003 3.93089 3.89358C2.23101 5.57712 1.17964 7.90248 1.17964 10.4716C1.17964 13.0408 2.23101 15.3671 3.93089 17.0502C5.63077 18.7342 7.97917 19.775 10.5733 19.775C13.1673 19.775 15.5162 18.7342 17.2161 17.0502C18.916 15.3671 19.9669 13.0413 19.9669 10.4716C19.9669 7.90248 18.916 5.57712 17.2161 3.89358Z" fill="white"/>
</g>
<defs>
<clipPath id="clip0_9620_21905">
<rect width="24" height="24" fill="white"/>
</clipPath>
</defs>
</svg>
